<?xml version='1.0' encoding='utf-8'?>
<svg xmlns="http://www.w3.org/2000/svg" width="1024pt" height="1024pt" version="1.1" viewBox="0 0 1024 1024"> <g fill="#0e0908"> <path d="m494.24 83.15c5.52-2.64 11.64-3.59 17.68-4.17 16.7 0.21 31.88 8.6 45.04 18.23 7.67 5.84 15.13 12.03 21.69 19.11 2.3 2.34 4.81 4.58 6.23 7.62-9.54-8.86-19.84-16.96-30.88-23.9-11.98-7.49-25.6-13.35-39.99-13.09-13.19-0.29-25.7 5.98-35.13 14.86-2.77 4.07-0.18 9.07 0.93 13.28 0.99 3.1-1.23 5.85-1.59 8.83 0.44 3.67 2.56 7.14 5.79 9.02 8.11 5.16 16.14 10.72 22.36 18.15-4.61-0.16-8.83-2.24-13.31-3.09-10.22-2.55-20.8-3.59-31.32-2.83 1.33 2.31 4.6 1.53 6.8 2.44 7.36 2.19 15.07 4.76 20.9 9.92-4.17-0.62-8.21-1.94-12.4-2.43-7.76-0.32-15.95-0.84-23.11 2.78-4.58 2.16-8.42 5.61-11.57 9.54 9.97-6.65 22.8-8.68 34.23-4.92 10.09 3.32 19.52 8.71 27.77 15.39-7.11 0.6-14.3 1.83-21.42 0.64-2.48-0.41-4.97-0.79-7.46-1.13 6.29 8.06 14.96 13.79 22.26 20.86 2.86 2.91 6.23 5.23 9.3 7.92-5.97-0.22-11.98-0.37-17.87-1.42-7.04-3.16-11.86-9.71-18.78-13.14-8.94-4.98-20.73-8.04-30.06-2.41 3.81-0.26 7.65-1.19 11.49-0.54 7.88 0.87 14.77 5.66 19.94 11.45 7.9 7.74 12.19 18.47 20.65 25.7 6.52 5.33 16.16 6.06 23.64 2.37 1.91-1.06 4.1-2.75 4.02-5.17 0.65-5.58-4.14-9.5-7.55-13.18 9.6-5.37 21.45-5.75 31.71-2.08 7.89 2.65 14.82 7.44 21.3 12.57 7.95 6.87 15.69 14.17 21.65 22.9-2.45 3.74-4.8 7.73-8.6 10.27-3.51 2.8-7.7 4.53-11.22 7.29 11.06 1.12 22.59 0.92 32.99-3.45 5.43-2.25 9.55-6.58 14.01-10.26 3.07 1.96 6.64 2.85 9.97 4.24-7.29 9.82-18.26 16.63-29.91 20.1-1.28 0.4-2.49 0.93-3.64 1.6 9.18-0.5 18.04-3.44 26.62-6.58 5.7-2.01 10.46-5.79 15.74-8.61-3.47 5.49-7.43 10.96-13.1 14.36l-0.52 2.64c5.13-2.32 10.02-5.05 14.69-8.19-0.91 4.29-4.38 7.31-6.96 10.64-3.83 4.79-8.33 9.01-13.24 12.68-7.79 5.14-16.71 8.27-25.68 10.63l-2.17 1.32c10.18-0.6 20.07-3 29.9-5.49-2.25 4.22-6.53 6.6-9.99 9.68-6.02 4.9-13.41 7.44-20.27 10.84 11.61 0.52 23.09-4.78 30.98-13.19 9.39-9.88 15.18-22.57 19.6-35.31 1.94-5.87 3.72-11.92 3.78-18.15-8.72 0.32-18.42-2.93-22.51-11.23 1.28-1.51 2.66-3.13 4.72-3.52 6.56-1.68 13.44 0.26 20.04-0.86 0.24-0.39 0.7-1.18 0.94-1.57-3.67-0.61-7.54-0.82-10.9-2.55-4.29-2.3-7.03-6.52-9.52-10.55-4.23-7.69-6.86-16.27-7.62-25.01-0.28-1.3 0.27-2.53 0.7-3.72 2.62-0.76 5.23-1.58 7.84-2.39 5.62 6.99 8.48 16.15 15.84 21.74 5.01 4.55 11.81 6.06 18.37 6.51-0.12 8.58-1.1 17.25 0.5 25.76 1.34 6.71 3.55 13.38 7.56 19 3.01 4.61 7.69 7.76 11.05 12.07-1.45 2.87-5.22 3.4-8.15 3.31-7.61 0.22-14.14-4.12-20.93-6.86 6.24 6.1 14.05 10.83 22.55 12.97-5.1 3.07-11.25 3.13-16.94 2.03 0.06 0.48 0.18 1.43 0.24 1.91 5.36-0.05 10.63 1.56 16.02 1.67 4.04 0.06 8.1-0.15 12.15 0.16-4.14 1.92-8.45 3.47-12.33 5.91 5.06-0.9 10.23-1.49 15.36-0.72-7.8 7.32-17.63 11.93-27.16 16.54 11.57 0.7 23.16-1.86 33.87-6.12-3.05 3.34-6.48 6.28-9.82 9.31 9.37-0.44 18.07-4.52 26.56-8.17-1.39 2.38-3.27 4.42-5.05 6.49 2.18-1.21 4.31-2.54 6.59-3.59-9.08 10.05-20.05 18.43-32.51 23.84-3.08 1.3-6.18 2.59-8.98 4.44 4.28-0.67 8.17-2.71 12.42-3.54-4.01 7.05-10.74 11.65-16.7 16.86 9.74-3.5 18.05-9.91 26.17-16.15 3.48-2.53 6.21-5.95 9.82-8.33-3.88 7.07-9.72 12.78-14.62 19.11 6.61-3.51 12.74-7.91 19.49-11.16-1.19 3.59-4.16 6.15-6.47 9.03-6.14 7.72-13.3 14.57-20.66 21.11-1.18 1.09-1.34 2.8-1.82 4.25-3.83 16.25-8.02 32.48-14.06 48.06 1.26-8.66 3.7-17.16 4.99-25.84-0.3-0.81-0.65-1.58-1.05-2.32-1.52 9.82-6.3 18.7-11.71 26.88l-0.4 0.02c-0.06-1.11-0.16-3.31-0.21-4.42-2.59 6.92 0.87 14.24 0.84 21.33-0.52 6.35-1.93 12.64-4.14 18.62-1.03 2.86-3.06 5.25-3.8 8.23 4.1 2.38 8.25-1.24 11.01-4.05 4.87-5.55 8.56-12.36 9.61-19.73 2.81 7.54 4.55 16.14 10.87 21.71 3.8 3.73 9.37 4.89 13.11 8.68 3.41 3.53 4.16 8.84 3.41 13.52-2.08-5.27-5.96-10.13-11.64-11.67 2.77 2.97 6.03 6.27 5.89 10.66-0.06 4.48 0.62 9.18-1.21 13.42-2.4-3.39-5.21-6.67-9.54-7.47 5.63 6.92 5.61 19.2-2.14 24.53-0.15-2.55 0.25-5.25-0.96-7.6-7.47 4.13-9.93 13.28-10.19 21.24-1.08 14.62 0.2 29.61-4.28 43.79-4.03 12.55-10.72 24.64-10.76 38.13-0.88 12.3 1.4 24.67-0.21 36.92-2.32 5.74-6.92 10.22-11.67 14.03-8.54 7.51-17.44 14.6-26.19 21.87-6.79 5.67-14.94 11.39-16.36 20.83-2.99 18.07-4.62 36.37-8.36 54.32-1.39 5.77-1.2 12.91-6.49 16.78-23.73 16.23-47.76 32.08-70.67 49.48-6.02 4.63-11.63 10.29-14.18 17.61-5.72 15.62-9.59 31.84-14.07 47.85-5.59 20.98-10.4 42.18-16 63.17-0.46 1.69-2.64 0.9-3.87 1.29-0.37-5.95 1.58-11.62 2.88-17.33 6.56-27.07 13.34-54.09 21.25-80.8 2.21-6.96 4.07-14.08 7.22-20.7 2.35-5.05 6.58-8.86 10.74-12.41 20.19-15.53 41.56-29.43 62.19-44.33-21.18-12.24-45.65-19.33-70.2-18.49-6.59 1.86-11.25 7.46-15.75 12.32-0.78-9.94-5.2-19.01-8.26-28.35-2.33-6.91-0.15-14.61 4.23-20.22-6.2-8.8-13.03-17.18-18.89-26.23-7.33-10.75-13.93-21.96-20.76-33.02-5.15-8.33-9.93-16.96-16.16-24.56-3.25-4-7.49-6.97-11.39-10.28-5.87-4.62-11.51-9.51-17.17-14.4 3.65 10.42 6.84 20.98 10.31 31.45 6.57 14.15 14.82 27.43 22.11 41.21 9.8 17.54 18.42 35.71 26.81 53.95 4.76 11.21 10.22 22.18 13.99 33.78-1.72-2.01-2.68-4.45-3.77-6.81-8.23-17.79-17.38-35.14-27.02-52.2-3.48 14.48-6.71 29.27-6.2 44.25-0.41 19.69 1.46 39.3 3.18 58.88 4.19 37.79 9.67 75.59 19.49 112.38 1.88 7.83 5.18 15.56 4.28 23.77-2.77 1.12-5.79 0.88-8.71 0.77-6.5-26.61-13.73-53.14-17.63-80.31-4.45-29.69-7.48-59.58-9.6-89.5-0.19-12.28-1.33-24.58-0.23-36.85 0.22-12.49 1.89-24.93 4.26-37.18 0.62-3.66 1.94-7.22 1.94-10.95-0.95-4.46-3.64-8.28-5.53-12.37-0.72 1.01-1.33 2.09-1.69 3.29-12.4 35.9-25.27 71.64-37.37 107.64-3.48 8.73-2.73 18.22-2.7 27.41 0.14 11.35-0.89 22.68-0.68 34.03 0.29 7.7-1.46 15.3-1.02 23.01-1.33 17.68-2.01 35.41-3.82 53.06-0.26 6.42-1.31 12.78-1.43 19.22-14.95 0.58-29.91 0.75-44.87 0.73 0.14-15.72 1.94-31.35 3.1-47.01 2.58-27.89 5.73-55.75 9.66-83.51 0.52-5.12 2.01-10.22 1.22-15.39-1.09-2.73-4.37-3.2-6.86-3.92-4.57-1.03-10.08-2.46-11.79-7.43-0.56-5-0.25-10.08 0.22-15.07l-1.09 0.82c-1.14 6.72-3.1 13.43-2.39 20.32 4.25 3.71 10.73 2.54 14.92 6.24 2.94 2.5 2.19 6.61 2.04 10.02-4.92 44.76-11.8 89.38-14.22 134.35-4.95-0.64-9.53-2.8-13.77-5.33 1.1-3.31 1.76-6.74 2.24-10.17 3.43-20.74 5.98-41.61 8.54-62.47 1.4-15.51 3.63-30.94 4.57-46.49 0.1-3.13 1.45-6.54 0.29-9.53-0.65-0.12-1.94-0.36-2.58-0.48-1 8.7-0.56 17.5-1.48 26.2-1.94 25.76-5.35 51.42-9.63 76.91-1.5 8.11-2.98 16.23-5.12 24.2-13.73-6.69-26.95-14.4-40.37-21.7-33.59-18.6-66.77-37.93-100.12-56.94 10.85-19.68 23.2-38.55 37.02-56.28 5.14-6.32 10.03-12.94 16.13-18.38-0.44-0.46-0.88-0.9-1.32-1.32-3.34 4.4-8.1 7.53-11.68 11.77-3.7 4.59-8.15 8.48-11.67 13.22-12.42 14.86-22.96 31.17-33.1 47.64-2.86-1.12-5.92-2.43-8.15-4.51 5.22-15.27 11.93-30.03 18.44-44.8 8.36-17.85 16.86-35.78 28.07-52.05 7.99-11.78 18.47-21.71 30.01-29.97 15.56-11.13 31.84-21.2 47.76-31.79-2.82-6.19-6.54-12.89-5.49-19.87 14.63-20.97 28.83-42.35 44.48-62.63 10.03-12.88 21.21-24.85 33.39-35.73 4.56-3.97 8.61-8.49 13.4-12.18 8.31 11.42 17.36 22.35 27.56 32.13 8.95 8.86 19.2 16.22 28.76 24.4 14.6 11.77 28.57 24.52 44.76 34.14 11.13 6.23 24.6 10.57 37.27 6.82 7.23-2.03 12.09-8.29 15.48-14.62 3.8 2.18 4.78 6.75 7.53 9.81 5.47 1.43 11.37 0.36 16.86-0.73 7.58-1.6 14.28-5.85 19.98-10.95 6.82-6.24 13.29-12.96 18.54-20.6-11.54-0.97-22.89-3.55-34.42-4.61-5.97-0.99-12.04-0.56-17.97 0.47-10.07 1.69-20.41 1.34-30.41-0.65-5.15-0.81-10.17-2.68-15.45-2.4-5.26-0.16-9.99 2.42-14.91 3.85 2.64-3.66 6.19-6.46 9.72-9.21 1.64-0.98 0.3-2.86-0.54-3.82-3.82-4.2-9.01-6.7-14-9.18-0.16-0.34-0.46-1.02-0.61-1.36 2.39-0.71 4.86-1.68 7.4-1.08 15.44 2.89 31.34 4.7 46.97 2.37 5.62-1.25 12.68-2.19 15.55-7.93 0.95-2.96 0.92-7.34-2.62-8.52-5.08-0.97-9.21 2.8-13.89 3.86-9.17 0.76-17.95-3.25-27.12-2.98-13.02-1.08-26.78 0.06-38.35 6.63-5.53 2.99-10.13 7.33-15.09 11.14 0.36-7.48 0.37-16.44 6.75-21.59 4.82-1.38 9.87-0.74 14.8-1.21 9.4-1.13 18.39-4.35 27.79-5.45 8.22-1.83 16.1 3.94 24.31 1.76 4.04-0.79 7.38-3.42 10.29-6.2 11.51-0.03 23.06 0.09 34.52-1.24 0.35-0.35 1.06-1.05 1.42-1.4-9.53-4.48-20.24-3.26-30.42-3.6-9.46-0.23-20.09 1.42-28.23-4.55-4.14-3.59-2.34-9.58-2.84-14.34 0.05-2.12-2.09-3.07-3.47-4.23-1.73-1.1-2.57-3.03-3.61-4.69-4.61-0.1-9.23 0.3-13.81-0.15-5.35-1.38-9.75-5.12-13.21-9.29 4.62 0.78 7.63-4.14 12.22-3.91 6.18-0.03 9.65 6.14 15.13 7.9 5.31-0.53 10.61-1.74 15.66-3.47 3.42-1.03 4.52-5.68 7.99-6.17 1.44 2.24 1.08 5.15 2.6 7.39 2.73-4.68 6.75-8.6 10.99-11.91 4.74-2.06 8.53 4.74 13.35 2.53 1.79-1.28 3.09-3.25 3.41-5.44 1.46-5.53 0.13-11.64-3.38-16.12-2.4-3.05-6.99-4.41-10.51-2.75-2.97 2.87-3.74 7.19-5.56 10.77-3.36-1.16-4.22-5.32-3.52-8.44 1.2-7.27 3.11-15.18 9.11-20.05 5.18-0.1 9.54 3.3 13.04 6.76 9.1 9.17 10.66 23.1 19.37 32.55 4.99 5.4 10.93 9.79 16.05 15.06 3.14 2.87 5.58 6.38 8.48 9.47 0.46 0.68 1.38 2.05 1.84 2.73-4.58-3.93-8.31-8.7-12.81-12.71-5.78-5.63-12.55-10.13-18.46-15.62-4.26-4.56-6.25-10.62-8.63-16.26 1.76 21.53-5.48 42.47-13.47 62.13 4.13 0.11 8.3-0.28 12.4 0.4 3.62 0.58 7.46 1.22 11.01-0.12 9.19-3.37 19.61-1.14 27.75 3.91 9.87 6.24 18.72 15.9 19.9 28 10.59-12.9 20.46-26.61 27.7-41.72 12.83-25.75 14.43-55.18 13.51-83.43-0.01-4.14 0.14-8.29-0.38-12.41-3.28 1.63-6.74 2.85-10.37 3.4 2.6-4.39 5.83-8.46 7.46-13.37 4.82-13.37 2.32-28.21-3.49-40.86-6.4-14.06-8.15-29.57-9.33-44.8-1.11-12.6-3.62-25.77-11.62-35.96-1.88-2.17-3.75-4.93-6.85-5.25-3.1 4.18-6.31 8.28-9.03 12.72-2.32 3.59-4.28 7.49-7.26 10.6-2.9 2.83-7.21 1.76-10.83 1.96 1.96 2.95 4.14 5.75 6.03 8.75-4.3 0.84-8.93 0.67-12.89 2.7-2.74 1.41-2.42 4.91-2.89 7.5 8.4 0.05 18.03-1.14 24.86 4.89-6.31 1.45-12.82 2.16-18.89 4.56-8.14 2.5-15.34 7.43-23.7 9.25-7.35 1.18-14.81 0.32-22.2 0.16 5.18-4.08 12.93-2.74 17.84-7.34 2.12-2.82 3.02-6.74 2.64-10.15-2.92-1.49-6.28-2.53-8.32-5.25-4-4.79-6.38-11.49-12.58-13.95-17 5.35-34.2 10.44-50.44 17.88-0.4-0.09-1.21-0.26-1.61-0.34 9.58-5.18 19.65-9.38 29.4-14.21 3.84-2.19 8.76-4.44 9.42-9.37 1.3-6.16-5.08-12.04-11.05-11.07-3.47 1.13-6.24 3.67-9.51 5.22-7.22 3.77-15.38 5.19-23.43 5.74-8.01-0.26-16.27 0.9-24.01-1.79 5.21 1.44 10.65 0.89 15.97 0.58 10.33-1.12 21.01-3.26 29.65-9.38 2.06-1.42 4.09-3.76 3.35-6.47-0.82-1.73-2.39-2.92-3.9-4.02-15.2-10.23-30.46-20.37-45.93-30.18-6.66-4.15-13.36-8.26-20.49-11.56-6.89 4.16-11.79 10.78-16.34 17.26-9.25 13.97-15.25 30.58-14.52 47.5-0.04 10.67 2.78 21.98 10.44 29.79 4.26 4.45 10.28 6.34 16.01 8.08-7.9-0.45-16.39-0.47-23.23-5.04-9.09-6.28-15.37-16.91-15.31-28.11-4.89 9.59-4.3 21.03-1.83 31.24 1.15 5.12 3.78 9.7 6.63 14.04-11.12 1.29-22.2-3.65-29.69-11.73-4.04-4.81-7.46-10.14-10.11-15.83-2.05-4.29-3.68-8.9-6.94-12.45-0.61 0.02-1.81 0.06-2.41 0.08-1.32 2.7-2.24 5.57-2.75 8.53-4.77 23.86-9.84 47.66-14.41 71.55-1.14 8.06 0.6 16.13 2.31 23.97 4.21 17.34 11.39 34.11 21.74 48.69 0.28 0.53 0.84 1.61 1.11 2.14-3.42-0.69-6.58-2.23-9.49-4.12 1.73 10.28 4.33 20.38 6.25 30.63-1.04-0.39-1.98-0.95-2.82-1.66-10.63-8.99-20.09-19.24-30.02-28.97-3-2.66-4.49-6.45-6-10.06-12.03-28.27-24.14-56.55-34.56-85.46-5.53-1.41-11.1-2.72-16.56-4.38-4.28-1.32-6.9-5.21-9.04-8.87-4.84-8.08-6.52-17.89-4.89-27.13 0.54-3.19 2.85-5.53 5.06-7.69 2.98-2.55 1.53-6.91 1.68-10.31-1.29-8.24-1.5-16.65-0.83-24.96 0.94-6.22 2.36-13.13 7.58-17.24 2.94-2.68 7.19-2.3 10.84-2.83-3.08-1.06-7.11-0.37-9.33-3.19-2.69-4.02-3.88-8.95-3.87-13.74 0.19-6.82 3.82-12.81 7.12-18.55 4.55-7.81 8.18-16.28 9.49-25.28 2.62-16.49 2.37-33.74 8.76-49.42 2.97-7.47 9.92-12.43 17.33-14.92-0.9-7.88 0.21-15.94 3.59-23.14 6.44-13.69 16.81-24.97 27.27-35.68 13.68-13.15 28.84-25.69 47.09-31.8 9.68-3.08 19.92-4.51 30.08-4.11 8.7 0.79 17.36 2.1 25.91 3.93 3.41 0.5 7.04 1.83 10.44 0.56 4.61-1.6 6.31-6.65 8.19-10.68 1.53 5.76 4.84 11.48 10.51 13.98 7.76 3.24 17.11 2.02 24.04-2.66 4.26-2.83 8.38-5.96 13.1-8.01m-116.05 15.1c-3.97 1.08-8.11 2.09-11.53 4.46 9.73-1.3 20.01-1.36 29.27 2.32 4.47 2.82 9.95 2.19 14.93 3.38 9 1.92 16.88 7.29 23.13 13.89 1.36-1.19 2.71-2.39 4.05-3.6-2.85-6.01-7.24-11.17-12.48-15.22-6.22-4.48-13.84-6.43-21.41-6.82-8.67-1.42-17.44-0.13-25.96 1.59m1.68 14.39c5.52 0.06 10.94 1.78 15.36 5.14-8.48 0.41-16.94 1.42-25.17 3.5 6.93 3.07 13.33 7.28 18.84 12.49-8.64 0.29-17.39 1.37-25.51 4.49-14.83 6.08-27.04 17.79-34.89 31.64-0.81 0.05-2.44 0.14-3.25 0.19l-0.14 1.29c6.86 0.79 13.68-0.18 20.52-0.54-11.4 11.76-22.66 24.11-30.17 38.8 6.85-5.26 13.31-11.05 20.58-15.75 8.42-5.67 17.72-9.85 27.07-13.71 6.7-2.91 13.48-6.21 18.65-11.5 1.95-2.36 4.27-4.79 4.45-8.02-3.73-2.99-8.37-4.7-13.16-4.7-13.57 0.23-25.62 7.11-37.49 12.88-1.88 0.42-3.76 0.81-5.65 1.11 1.65-2.91 4.37-4.93 7.01-6.88 14.85-10.21 32.34-15.43 49.73-19.36 4.52-0.66 4.08-5.94 6.25-8.87 1.7-1.7 3.84-2.88 5.81-4.26 1.6-3.52 1.06-7.3 0.08-10.9 8.31 5.07 15.03 12.32 20.52 20.29-0.02-0.7-0.06-2.09-0.07-2.79l0.5 0.24c-5.84-10.56-12.38-20.75-20.46-29.76-6.62 0.81-13.43 1.91-19.41 4.98m39.97 28.1c1.29 0.87 1.8 0.41 1.5-1.39-1.12-0.43-1.62 0.04-1.5 1.39m-17.93 35.27c-15.74 5.7-33.02 4.5-48.8 9.98-13.34 6.9-24.89 17.26-33.39 29.63-9.92 13.86-16.51 30.2-29 42.12-3.73 3.59-8.13 6.32-12.31 9.33 7.72-2.65 13.98-8.27 19.41-14.18 10.1-10.66 15.57-24.82 25.87-35.33 8.44-9.21 19.19-17.21 31.6-19.74-4.16 5.54-7.92 11.45-10.5 17.91-1.34 3.35-3.32 6.7-2.67 10.46 5.08-6.6 11.61-11.87 18.15-16.94 9.59-7.02 20.85-11.06 31.15-16.83 11.21-5.88 21.82-13.88 28.24-25.01-5.47 3.71-11.45 6.59-17.75 8.6m-43.17 37.75c-10.5 9.85-18.31 22.39-23.89 35.59l0.49 1.25c7.26-13.45 17.2-25.42 28.8-35.35 8-7.27 17.14-13.06 26.17-18.94-11.97 2.64-22.73 9.08-31.57 17.45m34.36-6.74c-10.75 3.94-20.8 10.01-28.86 18.19-12.14 12.28-19.66 28.72-22.12 45.73-0.25 4.94-0.57 9.9-0.54 14.85 2.39-3.05 4.18-6.53 6.69-9.5 8.04-10.24 18.98-18.04 30.95-23.05 8.26-3.45 17.26-4.37 26.12-4.63-1.34-0.71-2.73-1.43-4.28-1.49-7.18-0.47-14.4-0.33-21.47 1.1 2.61-3.74 6.71-5.94 10.61-8.09 7.67-4.01 16.03-6.83 24.68-7.65 5.88-1.33 11.76 0.49 17.52 1.55-6.3-4.19-14.11-5-21.45-5.72-10.09-0.11-20.26 2-29.34 6.43-3.54 1.69-6.47 4.35-9.81 6.37 1.52-2.21 3.6-3.91 5.69-5.54 8.36-7.28 18.07-13.32 28.87-16.16 9.15-2.62 18.96-1.69 27.96 1.14-6.2-4.26-13.93-5.74-21.33-6.18-15.42-0.38-30.44 6.6-41.25 17.39-6.24 7-11.64 14.79-15.69 23.27 0.55-2.29 1.29-4.53 2.38-6.62 3.88-7.76 8.01-15.61 14.27-21.75 6.64-7.59 14.86-14.05 24.43-17.45 5.24-2.02 10.84-2.57 16.34-3.41-6.57-1.82-13.88-0.79-20.37 1.22m87.34 24.69c2.01 4.17 5.18 7.59 8.28 10.96 4.15 4.06 9.67 6.15 14.41 9.36-9.1-1.87-17.65-5.51-26.29-8.79 6.69 7.13 14.48 13.25 23.19 17.73-4.02-1.26-7.79-3.26-11.92-4.2-2.48 4.81 0.26 10.12 3.16 14.06 4.28 6.26 11.5 9.68 18.66 11.49 8.37-1.86 17.09-2.27 25.08-5.69-5.85-3.48-12.73-4.64-18.66-7.98-3.94-2.3-8.46-3.95-11.47-7.52 11.03-0.27 22.03-1.15 33.05-1.56-8.89-5.6-17.96-11-26.04-17.76 12.67 3.35 25 8.88 35.01 17.46-4.78-11.58-15.86-19.06-27.4-22.86-5.67-1.74-11.42-4-17.46-3.52-4.79 0.12-9.39 1.77-14.17 1.94-2.76-0.16-5.12-1.8-7.43-3.12m-146.2 19.02c0.57 0.58 0.57 0.58 0 0m40.05 23.82c-14.07 16.18-20.24 38.27-19.31 59.45-0.3 5.67 1.94 11.05 2.03 16.69 0.45-0.67 0.89-1.34 1.33-2.01-0.4-3.56-0.52-7.15-0.77-10.73-1.02-22.8 7.13-45.07 19.42-63.98 1.2-1.69 2.44-3.37 3.29-5.27-2.32 1.58-4.25 3.65-5.99 5.85m-32.07 60.48c2.11 8.16 3.33 16.74 7.6 24.15-2.64-10.79-4.02-22.04-2.28-33.09 1.34-8 4.06-15.69 7.52-23 5.08-10.64 9.39-21.62 14.26-32.36-21.58 12.47-33.6 40.08-27.1 64.3m275.28-58.76c0.56-0.8 0.35-1.42-0.63-1.86-2.65-0.42-1.45 2.95 0.63 1.86m-306.9 11.31c-4.53 3.01-9.47 5.34-13.9 8.5 11.99-1.9 23.72-8.63 29.07-19.91-4.88 4.04-9.8 8.05-15.17 11.41m210.43 4.17c-9.68 1.96-19.65 1.59-29.46 2.41 5.33 3.11 11.5 4.46 17.56 5.25 7.49 1.1 15.62-0.58 21.44-5.6 4.8-4.21 9.26-8.95 12.23-14.66-6.64 5.08-13.27 11-21.77 12.6m-43.29-8.39c4.84 3.58 10.58 5.63 16.24 7.52 4.08 1.49 8.37 0.32 12.51-0.19 8.17-1.54 16.73-3.18 23.67-8.05-17.45 1.56-35.03-1.84-52.42 0.72m170.43 1.96c0.71 0.8 1.76 1.09 3.15 0.88 1.16-0.02 1.63-0.42 1.42-1.2-1.58-0.31-3.1-0.2-4.57 0.32m-356.76 24.58c3.38 2 7.11 3.29 10.63 5 5.68 2.56 11.65 5.28 18.01 5.1 6.93-0.52 12.17-6.55 13.78-13-3.99 4.84-9.23 9.25-15.7 9.91-9.5 0.49-17.72-5.17-26.72-7.01m-21.88 37.76c-2.98 0.83-6.69 2.48-9.37 0.04-0.67 0.43-1.34 0.89-1.99 1.36 5.98 3.39 12.91 1.01 18.92-0.98 10.2-3.58 19.79-11.34 22.58-22.16-8.76 8.76-18.27 17.5-30.14 21.74m-15.37-3.41c0.06 1.44 0.79 2.18 2.18 2.23-0.09-1.44-0.82-2.18-2.18-2.23m3.36 3.27c0.25 0.25 0.25 0.25 0 0m30.95 10.89c-3.35 1.86-7.23 2.92-10.06 5.61 5.64-1.03 11.23-2.58 16.34-5.22 5.33-2.66 9.58-7.1 13.06-11.85-6.26 4.12-12.54 8.26-19.34 11.46m69.24-6.86c0.11 0.45 0.34 1.33 0.45 1.77h0.68l0.44-1.76c-0.4 0-1.18-0.01-1.57-0.01m310.88 27.25c0.04 3.36-2.89 6.98-0.71 10.09 0.01-3.39 1.68-6.73 0.71-10.09m-396.82 30.64c7.69 19.84 17.08 38.97 25.14 58.67 3.73 8.22 6.48 17.04 11.74 24.46 2.23 3.43 7.55 4.92 10.61 1.71 3.66-4.1 4.04-10.01 4.34-15.24 0.2-3.34-3.62-4.17-5.42-6.25-4.88-4.06-5.07-10.82-5.85-16.6-1.24-7.69-6.89-13.48-10.36-20.19-1.85-3.11-2.58-6.77-4.71-9.71 0.69 4.3 2.15 8.44 4.17 12.3 2.98 6.12 7.95 11.46 8.51 18.54-1.96-0.26-1.75-2.48-2.79-3.67-2.72-1.13-5.83-1.57-7.99-3.74-8.39-6.79-12.79-16.9-17.87-26.13-2.79-4.95-4.65-10.76-9.52-14.15m287.44 191.13c-1.91 1.68-4.1 3.51-4.62 6.12 0.9 2.05 1.79 4.29 3.54 5.79 2.74-0.68 4.83-2.69 6.84-4.54 6.09-6.03 10.76-13.39 14.19-21.22-7.33 3.55-13.7 8.71-19.95 13.85m-280.07 90.44c4.66 6.85 11 12.5 14.98 19.84 7.74 14.22 11.72 30.07 18.38 44.77 1.22 3.25 4.51 4.75 6.86 7.04 2.19 2.6 2.4 6.27 2.22 9.53 0.39-0.08 1.16-0.25 1.55-0.34-0.43-3.97 1.23-7.69 2.01-11.5-3-1.03-6.21-1.74-8.83-3.6-3.95-5-5.52-11.36-7.76-17.22-4.82-13.1-9.17-26.55-16.54-38.51-2.63-4.64-6-8.85-8.3-13.68-1.83-3.89-1.35-8.28-1.66-12.44-2.83 4.65-5.95 10.82-2.91 16.11m-19.8 26.18c-13.12 8.34-25.89 17.37-37.36 27.88-5.67 4.75-10.79 10.3-14.65 16.62 5.94-4.91 11.75-10.09 18.66-13.61 18.64-9.74 40.35-11.89 58.6-22.49 2.44-2.19 6.85-4.61 5.33-8.51-2.68-4.76-6.7-8.88-10.96-12.15-6.87 3.51-13.09 8.17-19.62 12.26m51.18 59.24c-9.03 13.95-15.79 29.26-21.22 44.93-6.03 18.63-10.2 37.94-11.08 57.55l1.55-0.11c2.19-12.41 5.93-24.5 9.57-36.55 7.22-23.15 15.81-45.9 26.17-67.83 1.19-2.53 2.55-5.07 2.74-7.92-3.43 2.57-5.26 6.55-7.73 9.93m10.6 2.95c1.36-0.76 0.83-3.53 0.87-5.01-1.77-0.47-1.11 3.77-0.87 5.01m-39.39 19.49c-10.66 17.06-18.02 35.98-23.53 55.28-2.02 7.93-4.62 15.82-5.25 24.02 1.91-4.38 3.19-8.99 4.91-13.44 7.76-22.69 17.69-44.61 29.09-65.7 4.1-7.65 9-14.82 13.15-22.43-7.46 6.22-13.06 14.22-18.37 22.27m-63.53-12.37c-0.36 1.22 0.08 1.68 1.34 1.36 0.06-0.4 0.19-1.18 0.25-1.58-0.4 0.06-1.19 0.17-1.59 0.22m42.08 2.81c-5.34 1.52-10.19 4.36-14.9 7.24-12.3 7.97-22.79 18.4-32.23 29.54-1.61 0.66-0.9 2.05 0.13 2.62 15.08-13.31 31.28-25.38 48.18-36.29 1.11-0.74 3.18-1.96 1.48-3.42-0.67 0.08-2 0.23-2.66 0.31m-49.89 40.83c0.32 0.27 0.32 0.27 0 0z"/> <path d="m504.77 101.89c2.63-3.34 4.53-8.14 9.36-8.65 13.25-1.59 26.03 4.1 37.29 10.51 17.12 10.36 32.13 24 44.75 39.49 4.83 5.67 9.35 11.74 15.32 16.29 4.02 3.06 8.83 4.79 13.64 6.2-6.15 0.5-12.44-0.88-17.74-4.05-13.08-7.63-24.89-17.18-37.47-25.56-12.49-8.59-25.3-16.71-38.17-24.68l-0.51-0.08c-0.53 0.12-1.6 0.37-2.13 0.5 25.03 14.74 47.29 33.6 71.41 49.71 6.14 4.14 12.66 7.79 19.6 10.41 2.7 1.1 5.74 1.43 8.6 0.78 1.66-0.93 2.95-2.36 4.38-3.6-1.04 2.46-2.78 4.58-5.04 6.01-10.71 6.16-23.57 7.11-35.57 5.21-3.42-0.79-7.48-1.14-9.76-4.17-3.72-4.74-6.41-10.18-9.69-15.23-7.35-12.04-18.24-21.93-31.07-27.83-11.45-5.46-24.06-9.61-36.91-8.37-7.03 0.29-13.56 3.12-20.37 4.52 2.47-5.34 6.2-10.55 11.69-13.07 6.33-2.52 13.45-2.03 19.93-0.33-5.62-3.99-12.28-7.07-19.28-7.03 2.86-1.98 5.8-4.02 7.74-6.98m14.9 3.92c2.84 2.24 6.13 3.8 9.12 5.8 0.58-0.59 1.15-1.18 1.73-1.78-4.01 0.27-6.91-3.55-10.85-4.02z"/> <path d="m527.93 133.22c6.98 2.73 13.99 5.61 20.14 9.98 4.98 3.58 10.21 7.31 13.17 12.84-5.87 6.81-15.76 8.34-24.24 6.99-11.06-1.71-21.87-5.39-33.18-5.18 6.57-5.87 16.49-5.25 23.41-10.55 2.88-2.15 4.34-5.65 4.56-9.16-0.65-2.04-2.57-3.33-3.86-4.92z"/> <path d="m499.73 160.14c10.36 2.71 20.51 6.42 31.19 7.75 8.09 0.34 16.46 1.01 24.29-1.57 4.86-1.17 9.04-4.02 13.65-5.84 7.84 10.5 13.99 22.58 24.42 30.87 2.86 2.46 6.34 4.68 7.57 8.47-1 3.05-3.37 5.87-2.84 9.26 1.52 8.77 11.18 14.57 10.08 24.02-3.99-0.81-7.27-3.46-10.65-5.58-12.94-8.85-27.82-14.18-42.45-19.52-9.94-3.52-20.13-6.65-29.38-11.81-4.23-2.65-9.07-5.05-11.47-9.66 13.07 4.23 26.93 7.57 40.72 5.39l0.01-0.78c-10.13-1-20.26-3.09-29.47-7.55-10.94-4.5-20.23-12.94-25.67-23.45z"/> <path d="m615.4 223c5.13 2.38 9.67 5.83 14.78 8.26-3.96-0.11-8.29-1.1-11.96 0.89-3.76 1.63-4.97 5.87-7.3 8.88-5.51 7.42-13.58 13.1-22.6 15.29 8.46-4.66 14.87-12.05 20.24-19.92 2.82-4.18 4.36-9.03 6.84-13.4z"/> <path d="m420.1 363.19c7.34 2.14 14.52 4.85 21.96 6.7 6.9 2.26 14.44 3.27 20.54 7.48-3.6-0.13-7.03-1.32-10.52-2.11-8.95-2.31-18.11-4.04-26.71-7.54-2.28-0.79-3.95-2.58-5.27-4.53z"/> <path d="m588.07 373.85c7.98-1.89 16.76 1.25 22.01 7.52 0.44 3.3-0.79 7.2-4.16 8.47-2.1 0.33-4.23 0.02-6.32 0.03 2.95 3.6 7.43 5.63 10.06 9.57 1.82 2.76 4.44 5.66 4.27 9.15-3.41 3.16-7.55 5.38-11.36 8.01-3.49 2.26-8.22 4.68-12.02 1.65-3.5 2.97-6.88 6.27-11.16 8.11-9.24 4.16-19.85 2.22-29.26 5.79-1.65 0.65-2.82 2.05-4.13 3.18-0.02 1.14-0.04 2.3-0.06 3.46 4.34 3.65 10.27 3.11 15.52 4 6.09 0.43 12.2 0.19 18.3 0.07l0.01 0.97c-4.62 0.07-9.18 0.93-13.79 1.13-16.36 0.12-32.74 0.11-49.09 1.02-2.81 0.02-6.04 0.79-7.55 3.4-2.16 3.53-1.36 7.89-1.01 11.78 1.29 7.74 1.28 16.1 5.71 22.9-0.47 0.82-1.01 1.6-1.64 2.33-6.93-11.85-6.02-26.16-8.16-39.29-1.22-8.56-5.18-17.28-2.08-25.9-5.25-0.3-11.21-0.19-15.54-3.64 5.23-5.02 11.95-7.91 17.83-12.02-4.28-2.92-7.78-8.21-6.48-13.56 4.61 0.02 8.53 3.05 13.12 3.3 6.12 0.86 10.47-4.45 16.01-5.92 9.1-2.41 18.81 0.51 27.82-2.49 11.3-3.69 21.26-11.01 33.15-13.02m-37.79 29.24c-4.04 3.32-9.23 5.85-11.4 10.87 1.06 2.48 2.74 4.82 5.49 5.54 5.88 1.69 13.06 2.04 18.1-2-2.45-1.71-5.87-1.78-7.78-4.26-2.61-2.88-2.08-7.13-1.24-10.6-0.79 0.11-2.38 0.34-3.17 0.45m-25.3 13.26c-0.21 1.44 0.62 2.68 1.21 3.92 3.26-0.27 5.89-2.4 7.72-4.98-0.28-0.85-0.83-2.54-1.11-3.39-2.55 1.59-5.46 2.57-7.82 4.45z"/> <path d="m474.96 387.01c0.36-1.3 1.6-1.88 2.74-2.34 2.01 9.73 3.78 19.52 5.11 29.36 0.45 1.75-0.88 3.32-2.2 4.27-3.7 3.06-8.33 4.62-12.24 7.34-1.33 3.76 1.14 8.63-2.05 11.85-5.07 6.54-13.77 7.73-21.42 8.67-11.91 1.47-24.03 5.05-36.01 2.51 3.28-0.7 6.25-2.38 9.54-3.06 1.92-0.65 4.4-0.84 5.59-2.69 0.38-2.9-3.48-3.33-5.43-4.4-5.94-1.64-11.53-5.94-12.84-12.22 1.78-1.38 3.55-2.78 5.34-4.15-3.17-0.81-6.11 0.8-8.94 1.96-5.83 2.64-11.4 5.82-16.69 9.39-3.53 2.2-6.95 4.78-11 5.88-1.71 0.62-3.37-0.4-4.92-0.98-6.48-3-13.34-5.41-19.15-9.66-1.69-1.1-2.31-3.09-3.16-4.8 0.76-3.53 3.5-5.93 5.32-8.87-1-2.51-3.27-4.29-4.52-6.69 9.48-3.89 19.88-3.37 29.89-4.3 9.72 0.19 19.38-1.33 28.87-3.36 4.35-1.01 8.87-0.86 13.3-0.59 5.4 0.49 10.38 3.4 15.9 2.92 4.18 0.29 7.74-2.17 11.16-4.2-1.05 4.71-6.25 5.14-10.06 6.26-12.24 2.58-25.06 2.31-36.99 6.43 1.5 0.59 3.12 0.5 4.68 0.17 9.65-1.91 19.4-3.26 29.19-4.18 4.64-0.7 9.81-0.79 13.69-3.78 4.35-3.96 8.17-8.48 12.65-12.3-0.59 4.26-2.12 8.48-1.41 12.85 4.08-1.23 8.06-3.24 10.87-6.52 2.82-2.98 3.46-7.19 5.19-10.77m-37.86 39.76c-0.34 1.42-0.67 2.85-0.97 4.29 2.27-0.1 3.54-2.18 4.91-3.68-1.28-0.42-2.6-0.62-3.94-0.61z"/> <path d="m611.89 471.79c2.09-1.44 4.12-3.49 6.74-3.75 1.01 10.28-0.29 20.61-0.59 30.9 0.01 6.38-1.17 12.68-1.13 19.06-1.33 10.63-1.36 21.49-3.99 31.93-4.23-5.53-7.49-11.73-11.49-17.41-2.07-3.23-4.71-6.09-6.38-9.55-0.43-8.98 0.41-17.97 0.93-26.92 1.15-10.11 8.63-17.85 15.91-24.26z"/> <path d="m448.75 502.88c1.6-1.82 3.05-4.04 5.32-5.04 2.57-0.14 5.17 3.38 3.41 5.68-1.56 2.82-3.57 5.49-4.26 8.71-0.68 3.55-0.95 7.18-1.22 10.79-1.24-0.03-2.48-0.04-3.71-0.05-5.65 5.29-3.84 15-10.89 19.2-5.1 2.8-7.73 8.09-10.25 13.07 0.04-4.27 1.71-8.29 2.88-12.34 4.61-13.99 9.72-28.18 18.72-40.02z"/> <path d="m673.31 515.05c2.94-1.03 6.02 0.59 7.87 2.87 3.3 3.87 5.77 8.39 7.91 12.99 3.27 7.63 3.87 16.07 4.11 24.28 1.22 14.28 0.15 28.62-0.56 42.9-2.11 27.71-6.14 55.42-14 82.14 1.19-1.15 1.81-2.7 2.49-4.15 12.93-28.94 22.1-60.18 22.2-92.07-0.07-9.91-0.44-19.9-2.94-29.54-1.79-7.7-5.25-14.85-8.58-21.97 2.46 2.23 3.94 5.26 5.79 7.98 5.68 8.97 11.52 17.85 16.6 27.19 2.97 5.51 6.08 11.09 7.56 17.22 2.88 14.29-2.7 28.39-3.78 42.53 3.98-5.99 7.14-12.5 10.91-18.63 2.56-4.05 4.33-8.74 7.86-12.1 2.54-2.35 6.17-1.24 9.22-0.88 49.92 7.41 98.93 19.85 147.32 34.01 18.39 5.8 37.02 12.88 51.92 25.47-1.14 1.76-2.12 3.68-3.62 5.16-4.52 1.66-9.44 1.71-14.05 3.03-23.76 6.13-45.88 18.07-64.69 33.75-22.55 19.15-40.81 43.12-54.15 69.49-0.42 0.94-0.63 1.95-0.63 3.02 11.24-19 24.29-37.12 40.18-52.51 17.06-17.36 37.54-31.41 59.84-41.18 10.16-4.27 20.8-7.94 31.84-8.87 1.96 1.18 2.43 3.71 2.91 5.79 0.94 10.76-0.99 21.45-2.85 32.01-2.8 14.69-6.59 29.17-10.56 43.59-0.47 1.07-0.4 2.57-1.49 3.26-14.84 10.4-26.4 24.64-37.17 39.03-19.93 27.5-35.4 57.83-51.22 87.78-1.66 2.89-3.07 6.25-6.13 7.95-16.65 9.74-34.02 18.17-51.48 26.33-25.23 11.4-51.73 21.9-79.77 22.64-0.15-11.85-1.21-23.69-0.71-35.54 1.72-50.75 8.52-101.74 24.28-150.17-4.79 6.36-7.53 13.96-10.69 21.2-17.4 43.65-26.06 90.36-29.48 137.07-1.02 10.43-0.74 21.01-1.93 31.41-16.19 4.13-32.46 8.01-48.62 12.26-2.65 0.59-5.39 0.17-7.9-0.72-1.53-14.15-1.84-28.38-3.33-42.52-1.74 3.55-1.84 7.58-2.69 11.39-1.98 10.03-3.65 20.13-6.06 30.07-4.72 0.04-9.44 0.04-14.13-0.53-5.62-0.72-11.3-0.3-16.94-0.71-11.32-1-22.71-0.71-34.03-1.77 5.95-30.5 14.09-60.65 25.4-89.62 2.38-6.39 5.55-12.44 7.93-18.81-6.03 6.78-10.62 14.71-15.33 22.44-15.72 26.85-27.74 55.7-37.75 85.1-18.55-1.46-37.14-1.81-55.7-3.18 4.24-26.99 10.87-53.55 17.6-80.02 2.7-9.74 4.95-19.67 8.82-29.03 2.57-6.61 8.62-10.8 14.06-14.91 21.3-15.57 43.27-30.21 65.45-44.49 5-3.26 11.04-6.59 12.22-13.02 3.58-16.82 5.99-33.87 7.99-50.94 0.53-4.92 0.89-9.88 2.1-14.69 1.11-4.36 4.69-7.37 8.04-10.09 11.08-8.93 22.23-17.81 32.76-27.4 5.53-4.73 11.35-10.04 13.41-17.27 2.11-10.62-0.9-21.38-0.82-32.05 0.39-6.95 1.14-13.97 3.48-20.57 3.29-9.39 7.41-18.54 9.35-28.34 2.71-12.21 1.96-24.74 2.14-37.14 0.27-2.69 0.22-5.84 2.22-7.92m249.09 211.4c-20.13 8.13-37.13 22.68-50.52 39.56-11.83 15.1-21.98 31.76-28.38 49.89 3.2-4.11 5.38-8.91 8.34-13.2 18.14-29.21 42.21-54.95 71.16-73.65 2.51-1.69 5.34-2.96 7.48-5.15-2.8 0.49-5.48 1.45-8.08 2.55z"/> <path d="m722.59 579.89c20.53 2.34 40.81 6.64 61.14 10.36 43.34 8.65 86.59 17.98 129.13 30.01 9.31 2.71 18.66 5.44 27.56 9.35 3.07 1.31 6.01 2.99 8.3 5.48-7.14-0.67-14.05-2.9-20.91-4.89-27.25-9.16-55.13-16.22-83.05-22.96-40.27-9.37-80.78-17.81-121.6-24.45-0.14-0.73-0.43-2.18-0.57-2.9z"/> <path d="m913.2 775.23c3.72-4.12 7.4-8.34 11.96-11.57-1.6 8.27-4.5 16.22-6.39 24.43-3.42 13.52-6.48 27.16-8.23 41.01-1.22 9.83-6.61 18.93-14.44 24.94-13.4 10.26-29.27 16.51-44.69 23.01 7.99-16.37 16.1-32.71 25.2-48.5 10.62-18.78 22.24-37.15 36.59-53.32z"/> </g> </svg>