<?xml version='1.0' encoding='utf-8'?>
<svg xmlns="http://www.w3.org/2000/svg" version="1.1" id="Layer_1" x="0px" y="0px" viewBox="0 0 2768 5000" style="enable-background:new 0 0 2768 5000;"> <g transform="translate(1513.78 -13.2993)"> <path d="M449.3,1816.2c11.4-8.1,19.3-23,14.6-27.6c-2.6-2.6-31.1,5.1-37.8,10.3c-5.9,4.6-4.4-3.3,2.2-11.7c8-10.1,7.9-21.3,0-19.2 c-4.3,1.1-5.5,0.4-4.3-2.7c1.8-4.7-23.9-26.6-29.2-24.8c-6.8,2.3-12-30.1-30-9.4c-11.3,13.1-37.8,37.8-48,45 c-12.1,8.5-11.6,18.6,0.8,17.9c18.6-0.9,2.6-13.2,24.2-16.7c14.4-2.3,13.4-6,25.8-17c12.7-11.3,9.2-1.6-3.7,10.4 c-14,13-14.5,17.8-2.9,28.9c11.1,10.6,6.3,10.7,18.3-0.5c49.1-46,22.4,11.5,14.3,18.7c-12.7,11.2-9.5,12.8,4.4,2.2 c11.4-8.7,13.2-5.5,2.5,4.5c-8.7,8.2-8.9,9.9-2.2,19.1C416.4,1855.6,403.8,1848.5,449.3,1816.2z"/> <path d="M1206.2,2298c5.9,7.7,3,2.8,5.8-19c2.3-17.7-39.2-80.1-30.9-46c2.4,10.1,7.9,107.7,12.7,115.2c0.9-1.7-0.6,6.8,9.6-2.7 c13.7-12.9-8.9-10.1,7.2-26.2c6.9-6.9,2.6-17.5-4.6-11.5C1198.6,2313.8,1197.6,2286.7,1206.2,2298z"/> <path d="M481.8,1821.5c6,0,0.7-16.1-5.6-17c-10.4-1.5-64.7,56.5-61.3,65.5h0c2.7,6.9,5,5.5,35.3-22.1 C466.2,1833.4,480.4,1821.5,481.8,1821.5z"/> <path d="M1241.8,2279.8c-18.3-88.2-3.5-145.4-0.9-202.1c0-0.3,11-203.8,2.8-244.5c-7.1-35.3-12.2,199.3-47.5,265.5 c-2.9,5.4-8.1,23.8-15.3,53.7c-6.8,28.5,2.2,70.3,15.1,70.3c4.4,0,8.2,16.1,16.6,25c8.6,9.2,6.9,35.1,13.9,49.2 c33.2,66.6-15,293-24.4,350.8c-19.3,118.1-81.5,191.7-85.5,201.8c-2.2,5.6-8.4,16.3-13.7,23.8c-16.4,23-10.4,31.9-15.4,31.9 c-1.2,0-5.9,3.3-10.6,7.3c-14.2,12.2-5.7-14.4,9.7-30.2c17.2-17.7,0.9-26.7,11.6-27c5-0.1,18.7-22.9,18.6-31 c0-1.8,6-12.1,13.4-22.9c20.8-30.4,16.7-35.6,32-64.6c12.2-23.3,1.8-28.8,7.6-32.4c8-4.9,23.1-76.8,16.9-80.6 c-3.5-2.2-17.1,19.8-17.2,27.8c-0.1,12-67.4,79.9-67.4,98.7c0,4.2-10.4,15.4-23.6,33c-11.6,15.4-4.9,4.7-14.6,4.7 c-4.5,0-5.2-0.9-2.9-3.7c10.6-12.5,44-71,44-73.5c0-9.4,19.7-11.9,36.6-50.9c6.1-14.1,11-5.9,16.5-16.1c8.2-15.3,21-23.3,18.2-34 c-1-3.9-0.3-7.8,1.5-8.9c1.8-1.1,4-12.5,4.8-25.3c4.8-75.6-3.4-56.4-3.4-98.9c-8.1-84.5-17.5-64.4-27.9-139.6 c-3.9-28.2-7.2-28.6-15.5-36.6c31.2-4.5,3.4,1.9,38.2,87.5c6.4,15.6,16.5,65.6,16,82.5c-0.6,24.8,6.3,52.5,6.2,60.6 c-0.1,7.4,5.4,5.7,5.4,14.7c0,11.3,5.5,1.3,6.9-12.5c0.7-7.2,2.9-24.6,4.9-38.6c5.4-38.5-0.7-26.8-1.3-59 c-0.4-26-10.5-18.3-10.5-33.6c0-13.8-4.5-5.9-7.5-25.4c-3-19.9-13.9-19.2-11.4-29.1c2.3-9-6.9-32.1-9.1-61.4 c-2.4-32.3-7.5-20.1-8.5-53.9c-1-35.7-11.9-18.9-8.4-36.4c1.3-6.7,0.5-10.1-3-12.7c-17.8-13-21.4-36.6-5.6-36.6 c13.4,0,12.7-2,4.2,6c-6.3,5.9-6.3,6.3-1.4,14.6c7.9,13.4,11.8,9.4,9.8-10c-0.6-5.9,14.4-46.5,23.5-63.7c8.7-16.3,12-74.2,5.3-91.2 c-4.7-11.8,0.6-2.6,7.4-41.9c4.6-26.6,16.3-43.5,10.7-59.5c-3.5-10-3.8-7.1-0.7-18.7c1.5-5.4,1-2.6-14.2-56.3 c-23.7-83.5-13.6-57.6-40.3-95.8c-25-35.7-53.2-64.1-85.1-88.6c-11.6-8.9-21.1-21.3-32.7-30.8c-109.1-89.9-125.4-100.7-109.3-106.9 c4.9-1.9,10.5,2.8,49.7,41.3c72.8,72.8,213.5,147.2,236.9,292.3c14.5,90.3,15.2-43.4,1.5-74.5c-29-65.6,2.3-11.8-37.5-80.2 c-9.9-17-61.8-106.8-75.7-120.8c-27.6-27.7-119.4-109.7-158.4-109.7c-9.1,0-33.1-13.3-33.1-18.4c0-1.9-12.7-15.4-28.2-29.9 c-84.5-79.2-18.3-31.7-101.6-206.5c-38.1-79.9-40.7-89.4-43.2-156.9c-1.5-41.9-3.5-62.8-6.9-72.9c-9.7-28.6,5.5-34.2-3.3-86.1 c-1.2-7.1-0.7-9.5,2-8.6c5.9,2,14.7,42.7,12.8,59.4c-11.4,102.8,41.4,231.7,64.4,290.6c47,120.9,43.7,114.1,49.9,121.5 c8.7,10.4,19,29.5,19,35.5c0,5.3,9.8,11.5,13.3,14.7c57.4,53.4,93.5,51.5,121.2,69.2c9.7,6.1,15.7,15.2,24.3,22.4 c55.2,46.2,100.2,74.8,146,169.5c7.4,15.3,34.9,60.3,34.9,66.7c0,7.1,10.4,11.7-0.4-17.7c-5.1-13.7,1.5-14.7-9.3-47.4 c-65.8-200.3-147.3-217.6-176.4-273c-17.8-33.9-52-58-82.1-57.9c-5.4,0-15-12.7-18.9-24.9C872,1130.1,914.9,998.6,853,885.8 c-12.5-22.8-18.9-32-21.5-46.9c-11.2-64-9.4-70.9-38.8-100.2c-62.7-62.5-24.7-92.3-88.1-189.9C416.6,105.2-31.1-57.1-578.8,40.8 c-247.4,44.2-451.4,128.1-620.6,333.4c-12.8,15.6-85.3,107.1-85.5,127.3c-0.1,21.7-62.4,78-86.5,264.2 c-7.2,55.5-34,118.4-33.6,211.9c0.4,101.8,26.7,119.4-21.2,141.9c-36.8,17.3-34.7,26.9-63.9,120.6c-15.9,51-11.4,88.6,15.4,128.2 c25.3,37.5,24.2,131.7-1.9,158.2c-41.1,41.8-38.8,146-35.7,204.2c1.2,21.9,4.1,120.9,16.3,136c26.5,32.8,17.9,157.3,105.5,223.7 c9.9,7.5,11,12.7,4.8,24.5c-36.4,69.8-20.6,616.7-32,623.9c-2.5,1.6-2.5,2.2,0.1,2.2c5.6,0.1,3.1,82.4,5.4,115.7 c12,178-10.1,261.5-3.2,369c5.7,88.2,0,154.7,12.3,244.5c2.4,17.3,11.1,131.3,15.8,163.4c13.4,89.9,13,181.1,15.4,271.7 c10.8,52.1,22,104.1,31.4,156.4c18.1,101.6,45.4,148.7,51.3,183.5c3,18,18.5,63.2,24.9,72.8c3.2,4.8,8.5,12.8,11.7,17.8 c43.3,66.9,134.8,34.6,243.3-85.8c48.3-53.6,87.7-32.7,109.2,58c5.6,23.5,2.1,118.3-5.2,141.8c-88,283.7-275,427.7-235.4,503.6 c22.8,43.7,114.6,60,157.4,58.8c193-5.6,203.9,2.9,244.9,0.5c48.2-2.8,45.3-16.6,114-29.9c243.8-46.9,0.9-51.3,382.2-55.3 c321.7-3.3,292.6-52.6,424.5-73.7c13.1-2.1,292.7-85.8,316.4-109.7c3.5-3.5,98.7-75.4,162.5-87.8c23.8-4.6,48.4-15,71.6-22.4 c37.7-12,132.8-94.9,150.6-115.7c40.8-47.7,44-161.7,4.3-156.3c-19.5,2.7-27.3-13.3-14.4-29.7c16.9-21.5,13.7-72.3-7.3-115.6 c-42.3-86.8,34-215.3,34-284.1c0-71.1,37.3-83.7,58.7-128.6c53.1-111.2,84.5-143.6,70.3-266.6c-19.2-165.5,12.7-206.1-15.9-322.8 c-59.3-242.4,48.7-246.3,101.3-315.2c76.4-99.9,49.6-81.1,85.8-171.8c17.3-43.3,17-42.2,27.8-115.7 C1243.5,2506.2,1270.1,2416.3,1241.8,2279.8z M-1498,1734.4c-1.8-10.9-4.9-27.3-7-36.6c-7.1-32.2,17.1-144.6,34.9-162 c12.7-12.4,42.5-30.6,50-30.6c3.3,0,6.9-1.5,8-3.2c3.7-5.9,51.6,6.5,55.6,0c2.6-4.2,13-3,13,1.6c0,9.6-17.5,14-41,10.3 c-29.4-4.7-77,18.3-90.6,43.8C-1495,1594.9-1484.3,1817.5-1498,1734.4z M-1315.6,2129.1c-2.6-4.2-10.3,2.1-10.3-2.7 c0-4.2-4.4-0.8-17.7-10.8c-43.4-32.6-81.9-31.2-113.8-194.5c-25.5-130.7-30.2-131.8-22.6-131.8c21.2,0,28.4,240.9,97,286.3 c73.9,48.9,71.8,43.6,71.8,50.4C-1311.3,2132.4-1312.8,2133.6-1315.6,2129.1z M1040.5,2392.6c12.4,0,20.4,28.5,36.8,46.6 c67.7,75,7.3,206.3,11.2,210.2c2.4,2.4-9.8,21-9.8,31.4c0,10.5-4.7,7-8.9,18.1c0,15.4-18.6-0.1-12.7-4.2c3.6-2.5,9.9-23.6,9.9-33.2 c0-9.5,3.5-4.3,13.4-39.2c19.6-68.6,9.2-63.1,13.7-70.4c13.9-22.5-11.8-99-46.9-139.5C1037.7,2401.6,1034.7,2392.6,1040.5,2392.6z M1000.6,2407.6c5.6-29.8-4.3-157,11.8-78.8c11.3,54.9-1.3,41.6-4.9,69.3C1007.5,2407.9,997.1,2426,1000.6,2407.6z M907.2,2520.2 c81.2-66.4,79.2-88.6,84.2-93.6c5.2-5.1,13.9-8,13.9-4.7c0,1.6-1.2,2.8-2.6,2.8c-4.7,0-14.7,24.7-11,27c2.2,1.4,1.8,2.2-1.2,2.2 c-2.8,0-6.6,5.8-9.9,14.9c-9,24.9-23.4,43.1-77.3,96.8c-164.9,164.4-161.2,149.5-207,302.8c-29.7,99.5-78,178.9-119.5,196.2l0,0 c-17.1,7.2-10.4,24.6-14.5,10.3c-6-21.1,2.9-2.3,20.8-32.7c42.6-72.3,91.2-217,180.7-377.3C784.3,2628.5,824.5,2587.9,907.2,2520.2 z M834,2943.2c-2.9,9-21.7,8.8-14.7-11.7c5.2-15.2,0.1-32.2,2.2-68.8c1.1-18.3-8.9-33.7,1.6-33.7c6.8,0,11.3,11.1,10.3,24.9 C831,2886.1,833.7,2943.2,834,2943.2z M772.8,3368.8c6.1,51.9-23.4-33.6-21.2-41.4c0.4-1.5,17.8-185.4,18-186 c22.2-80.2,22.5-68,25.8-103c1.2-12.4,4.9-22.3,7.8-20.5c1.3,0.8,1.8-1,1-4.1c-2.4-9.3,11.3-13,9-24.2c-1.1-5.2-0.4-4.7,2.8,2 c3.4,7.1,3.5,9.4,0.4,11.8C807.7,3010.4,765.5,3306.3,772.8,3368.8z M572.6,4297.7c-0.7-98,59.7-314.7,61.2-321.9 c7.7-36.4,87.4-131.9,87.4-151.3c0-26.3,48.9-52.7,21.6-253.1c-6.2-45.7-6-51.7-9.7-65.2c-6.7-24.3,5.9-9.9,10,22.7 c1,8.3,36.7,177,13.1,242.1c-0.1,0.3-40.2,118.1-46.3,118.1c-4.3,0-24.4,20.5-29.7,30.2c-11.7,21.9-14.4,26.4-16.8,28.1 c-4,2.8-14.3,34.6-33.3,74c-4.3,9-31.1,166.5-39.4,198.7c-8.6,33.4-3.8,104.7-9.8,135.6c-7.8,40.5-7.6,89.6-16.4,75.3 C561.8,4426.5,573.1,4371.8,572.6,4297.7z M592.4,1238.7c2.5,0,1.1-123.7,7.7-213.8c19.8-272.8-26.8-359.9,44.6-344.2 c9.9,2.2,17.4,25.2,13.7,42.1c-2.1,9.7,14.8,81.9,19.2,87.2c2.9,3.6,10.2,122.7-6.2,323.3c-6.9,84.8-13.3,67.9-10.4,144.3 c2,51.4,1.9,51.2,21.3,95.4c14.3,32.6,24.2,88.8,23.7,135.1c-0.7,71.2,12,54.3-3.3,105.6c-9.4,31.7,1.9,34.2-16.6,62.8 c-14,21.6-38.2,65.5-38.2,69.2c0,19.1-43.5,78.2-57.9,78.6c-5.7,0.2-33.6,26.5-41.4,26.5c-8,0-10.1,8.8-17.8,8.8 c-5.6,0-15.8,13.3-13.3,17.3c3,4.9-39.4,49.8-47.4,50c-10.8,0.3-12.6,20.2-3.6,39.8c20.3,44.2,28,87.6,21,117.7 c-4.3,18.4-1.5,8.5,19,16c13,4.7,9.7-4.9,9.7,51.4c14,2.8,27.5,4.8,29.9-12c1.1-7.8,13-11,10.1-3.4c-3,7.9,15.6-3,20.1-16.1 c10.1-29.2,47.5-68.1,60-143c28-167.9,58.5-157,70.2-187.9c99.7-264.7,108.4-122.5,16.2,50.7c-18.6,35-23.7,64.1-30.7,73 c-14.5,18.5-22.5,57.7-38.5,84.8c-12.2,20.7-6.5,17.6-12.5,22.6c-7.1,5.9-1.5,9.9-20.5,36.8c-17.1,24.2-26.5,50.6-32.8,57.6 c-10.6,11.7,4.8,26.8,4.8,15.9c0-6.9,21.9-24,24.2-34.2c3.1-13.7,30.7-71.8,43.7-91.9c37.2-57.5,37.9-26.2,1.1,52.5 c-0.1,0.3-69,159.6-69,163.6c0,22.8-25.8,92.2-45.8,123c-31.5,48.7-28.7,67-65.5,80.9c-21.2,8-32.9,4-33.1-10.1 c-4.7-4.5-7.4-10.3-8.4-16.6c-9.1-5-14.5-40.7-6.6-66c1.5-4.7,0.8-6.6-2.1-6.6c-3.5,0-4.1-9.3-3.7-55.9 c0.5-58.8-1.4-67.1-15.2-67.1c-5,0-26.3-20.7-42.6-31.4c-38-25.1-92.3-120.1-115-131.8c-38.4-19.8-66.6-78.8-67.7-141.4 c-0.6-32.2-1.1-34.7-11.5-57.1c-74-158.2-43.3-151.8-83.3-204.7c-21.4-28.3-35.2-56.4-45.7-66.3c-25-23.5,38.5-54.9,133.4,71.8 c23.2,30.9,69.6,76.6,96.7,103.8c56-42,58.4-42.5,53-48.3c-4.2-4.5-7-35.6-3.4-37.8c1.7-1.1,5.7-7,8.9-13.3 c13.9-27.3,133.1-123,153.3-123c2.4,0,8.2-3.1,12.7-6.8c50.8-41.6,78.3-34.4,82-45.3c3.8-11.4,25.5-52.5,16.4-53.6 c-6-0.7-32.8,1-71.4-29.4c-14.2-11.2-26.8-11.3-45.4-39.2c-9.7-14.6-87.4-61.4-101.9-61.4c-1.7,0-4.4-1.6-6-3.6 c-10-12.4-64.4-16.9-79.1-6.6c-1.6,1.1-7.5,1.7-13,1.3c-22.7-1.8-74.7,63.1-132.2,63.1c-34.5,0-163.8,103.1-163.8,11.2 c0-5.1-2.1-11.6-4.7-14.4c-8.3-9.1-8.9-40.6-1.2-56.6c18.6-38.5,103.2-61.1,152.4-77.6c134.5-44.9,128-26.7,186.7-44.5 c29.8-9,19.8,17.9-13.8,17.9c-15.5,0,3.7,14.1,19,4.1c34.7-22.7,214.5,39.7,244.1,67.1c11.4,10.6,17.3-0.4,8.5-15.8 c-6.2-10.8-10.9-12.6-10.9-4.1c0,10.5-17.6,4.7-17.6-44.5c0-51.2-26.3-9.8-39.9-24.9c-2.7-3-8.1-5.5-11.9-5.5 c-10.3,0-23.3-8.8-39-8.8c-14.8,0-76.7-20.9-80.5-14.7c-4.8,7.8-130.3-1.4-144.8,8.4c-27.3,18.5-74.7,31.2-108.6,42 c-48.2,15.5-59.4,1.7-67.9,9.6c-11.8,10.9-54.6,13.9-72.8,5c-13-6.3-15.3-17.8-5.3-26.9c17.8-16.2,23.1-18.7,8.2-23.9 c-13.2-4.6-12.2-15.7,2.2-22.3c10.1-4.6,24.2-16.4,24.2-20.2c0-0.9-5.2-0.7-11.6,0.4c-13.4,2.3-23.6-0.2-23.6-5.7 c0-24.6,130.7-10.2,117.2-26.4c-33.9-40.9,318.4-71.5,396.2-0.6c29,26.5,17-17.2,26.7-36.6c8.6-17.4,0.7-104.8-13.3-146.4 c-4.7-13.9-8.5-30-8.5-35.7c0-22.6-14.9-26.3,4.3,99c17.5,114.4-24.9,93.9-36.3-5c-4.3-37.3-13.2-51.4-16.3-81.5 c-3.4-34.2-16.1-55.5-16.1-82c0-51.6-17,24.2-3.9,33.8c11.7,8.6,2.7,44.9,18.6,84.5c26.4,66-11.8,168-33.9,53.9 c-5.1-26.2-10-37.2-10-22.5c0,15.9-9.4,46.7-14.2,46.7c-9,0-23.8-16.3-23.8-26.2c0-11.3-3-11.3-9.4-0.1 c-17.6,31-29.7-19.4-17.9-74.7c1.7-7.7,1.3-8.3-2.7-5c-7.6,6.3-18.7,96.3-40.6,109.9c-8.2,5.1-19.5,0-21.7-9.6 c-6.7-30.5-11.6,20.4-31.5,0.5c-6.1-6.1-7.1-10.2-7.7-33.5c-0.3-12.8-6.2-20.8-6.2-8.4c0,17.9-19.7,43.5-29.5,38.3 c-7.1-3.8-14.6-19.6-12.2-25.8c2-5.2-3.8-4.7-6.2,10.6c-3.9,24.2-16.4,28.2-28.2,8.8c-5.9-9.7-15-5.4-21.6,10.4 c-5.9,14.2-49.4,57.6-57.6,57.6c-3.7,0-9.3,2.3-12.3,5c-12.8,11.6-20.9-9.5-14-36.7c4.5-17.8,4.7-17.9-24.9,9.7 c-40.4,37.7-54.5,25.1-27.8-24.9c4.3-8.1-2.4-8.1-11.2,0.1c-9.4,8.8-26.9,15.6-30.6,11.9c-1.8-1.8-4.9-2-7.8-0.4 c-14.6,7.8-56.9,12.7-115.2,13.4c-101.4,1.2-47.3,7-74,6.9c-83.1-0.3-225-5.4-283.2-65.4l9.8-8.2c22.7-19,23.4,8.2,22.9-37.4 c-0.3-28.8-0.4-29.3-7.2-29.3c-10.2,0-16-22-16-61.1c0-36.4-3.4-50.4-4.6,29.5c-1.6,113.3-38.5,111.2-52.7-18.2 c-3.5-32-6.2-33-8.4-2.9c-5.5,73.8-48,152.9-48.7,51.3l-6.8,8.4c-23.7,29-30.9-34.9-10.6-93.3c10.6-30.5,13.5-42.9,9.9-42.2 c-47.1,8.6,50.9-136.5,51.5-137.5c11.2-18.8,13.2-6.6,15.8-25c1-7.1,4.5-17.8,7.9-23.8C-551.3,532-739,577-794,622.1 c-18.2,14.9-21.9,8.2-27.4,13.7c-6.1,6.1-31.7-1.7,14.9-44.2c91.8-83.8,151.9-100.8,180-122c16.8-12.7,42.2-8.7,36.9-22.6 c-2.4-6.3-9.2-6.1-10.9,0.4c-2.5,9.5,0.9-2.9-6.7-11.3c-13-14.4,30.6-30.9,103.8-39.3c83.3-9.6,331.3-1.7,346,1.4 c31.6,6.6,42.2,4.2,157.7,36.1c42.6,11.8,35.9-12.7-7.3-26.9c-27.3-9-37.1-13.1-44.9-18.5c-11.6-8.2-14.6-1.6-27.9-12.5 c-15.4-12.6-0.2-24.5,18.7-14.8c4.9,2.5,13.4,4.6,19,4.6c30.6,0,187,70.9,213.1,91.9c4.2,3.4,11.8,8.4,16.8,11.2 c9.7,5.3,13,13.3,4,9.7c-7-2.8-38.1-9.8-46.1-13.1c-55.5-22.6-64.6-20.4-64.1-26.7c0.6-8.2-27.9,0.2-34.2-7.5 c-8.1-9.7-13.3,10.6-2.8,10.6c7.7,0,6.5,4.6,15.5,6.7c6,1.4,140,42.2,145.3,39c7.9-4.9,42.1,24.6,46.4,24.6c3.6,0,40.5,41,40.5,45 c0,1.9-3.5,2.9-8.3,2.3c-12.7-1.5-1.3-1.6-4.8,30.3c-2.3,20.6,0.9,31.2,8.2,26.7c3.8-2.3,12.3-27.2,12.3-35.9 c0-3.7,4-12.9,8.8-20.6c13.3-21,12.4-23.8-19.8-57.5c-92.2-96.6-87.3-111.2-90.5-99.2c-1.2,4.5-3.4,6.3-6.5,5.4 c-27-8.3-55.9-21.8-57.9-27c-2.4-6.2-9.8-2.7-9.8-7.2c0-13.7-62.5-43.1-75.4-51.9c-75.2-51-249.6-41.4-341.8-44.5 c-19.8-0.7,5.7-6.1,35-7.5c44.8-2.1,40.4-2.1,38.1-26.3l-20.1-2c-16-1.6-31.9-7-25.1-8.6c37.2-8.3,168,9.7,121.4,14.8 c-14,1.5-14.7,2-15.6,11.1c-1.1,11.7-5.5,9.7,55.2,11l-1.7-7.8c-5.4-24.4,85.8,18,97.7,18.1C11.7,281.3,47,302.2,73,304 c4,0.3,6.9,3,8.1,7.7c2.1,8.2,28.2,24.9,39,24.9c9.3,0,51.9,32.2,59,32.2c2.7,0,7.5,1.8,10.7,4c3.2,2.2,15.1,6.9,26.6,10.4 C318.6,414.6,436,568.7,441.5,590.8c0.9,3.7,6.7,17.5,12.9,30.8c20.1,43,20.4,48.3,2.6,46.4c-9.8-1-15,12-7.2,18 c7.9,6.1,18.1,54.2,36.5,100.2c15.2,38.1,19.8,57.2,14.7,60.5c-2.8,1.8-2.5,2.4,1.3,2.4c7.4,0.1,3.5,8.8,8.3,8.8 c4.7,0-5-40.1,0.8-46c10.5-10.5,41.2,55,47.5,101.4c2.3,16.8,5.9,32.6,8.2,35.1c8.5,9.7,14.7,114.5,9.8,163.9 C572.1,1160.8,581.6,1238.7,592.4,1238.7z M465.3,3918.5c13.2,71.9,10.8,43.9,9,123c-3,128.6-19.6,139.2-19.6,165.9 c-0.3,0-0.6,17.1-6.9,10.7c-3.3-3.3-2-16.8,3.7-39.2c12.2-47.9,21.1-180.9,14.5-215c-26.5-135.2-29-167.6-18.2-231 c2.4-14.3,3.9-26.4,3.2-27.1c-1.7-1.7-25.6,50-25.6,55.4c0,5.7-13.5,21.7-16.1,19.1c-10.1-10.1,100.7-158,55.8-302.6 c-13.1-42.3-32.9-122.9-46-162.5c-5.6-17-32.9-53.6-37.3-73.3c-10.4-46.4-31.9-41.2-26-126.8c4.3-61.9,4-65.1-10.8-100.8 c-15.2-36.8-38.5-83.3-43.1-86.1c-5.6-3.4-3.4-24.8,30.6,42.7c30,59.7,34.8,70.3,38.7,85.4c4.7,17.9,2.1,50.3-4.5,58.3 c-4.8,5.8,1.3-4.8,2.6,29.8c2.3,57.6,21,77.7,21,94.8c0,3.6,15,29.7,22.6,39.2c7,8.8,31,68.8,49.1,99.1 c41.1,69,52.9,202,22.8,258.3C447.4,3705.7,441.7,3789.7,465.3,3918.5z M352.2,3615.9c1.1,64.3-8.5,93.9-8.7,104.9 c0,1.6-1.4,1-3-1.5c-2.3-3.3-2.6-2.6-1.3,2.9c8.6,38.2-64.2,186-64.3,186.4c-0.1,0.3-77.6,135.8-56.4,302 c-0.1,0.3,2.6,18.3-0.5,18.3c-10.8,0-15.6-159.2-5.5-183.8c2.8-6.9,7-24,9.3-38.1c19.5-120.1,110.4-182.7,120.6-448.8 c1.7-45,3.9-44.1-4.4-79.1c-1.6-6.8-49.5-236.3-57.6-253.5c-46.2-97.6-13.6-55.2-48.5-125c-21.8-43.6,4.1-33.5,28.5,49.6 c12.6,42.9,33.5,68.8,39.2,104c9.7,59.7,27.6,114.3,16.6,63.5c-21.3-98-9.5-222.3-55.3-304.9c-10.3-18.6-6.3-68.5-0.6-50.3 c1,3,11.5,26,23.4,50.9c77.7,163.1,48.8,337.8,64.2,369.9c9.1,18.9-0.6,22.4-13.1-12.6c-15.1-42.2-18-35.3-3.8,9.3 c14.5,45.7,38.2,195.2,24.3,212C353.3,3594.2,352,3604.9,352.2,3615.9z M205,2342.4c-22.8-11.6-1.8-20.8,4.6-9.6 c6.1,10.8,51,20.2,59.1,123.1c4.5,57.5-48.2,85-46.8,85.7c-24,16.3-24.9,15.3-5.7-6.5C262.8,2482.3,256.1,2368.5,205,2342.4z M243.7,2590c23.5,3.2,80.7-4.2,93.5-12.1c36.7-22.8,60.8-90.4,46.2-129.7c-12.4-33.6-8.2-72,4.5-40.2c21.4,53.8,20.8,51.7,19,75.1 c-3.6,45.9-16,53.7-37.8,77.9c-27.8,31-9.5,29.3-94.5,37.7C235,2602.6,194.6,2583.2,243.7,2590z M496.7,3417 c-12-18.9-78.9-210.7-79.1-211c-17-41.2-14.1-98.6-18.2-112.2c-10.8-35.3-13.4-100.7-22.4-100.7c-5.7,0-5.6-7-0.2-4.9 c8.7,3.3-12.8-81.1-78.2-150.3c-23.7-25-26.7-32.2-13.7-32.2c5.2,0,8.8,1.5,8.8,3.8c0,5.7,29.3,31.1,29.3,35.1c0,1.4,2,4.5,4.4,6.9 s5.2,7.9,6.3,12.2c2.6,10.8,21.6,24.3,21.6,31c0,5,12.5,26.4,17,29.2c12.6,7.8,32.9,72.8,34,109.3c2,65.9,5.6,44.2,11.9,122.4 c4.9,60.9,45.2,156.7,48.2,162.3c5,9.3,30.6,85.3,35.1,93.5C505,3415,501.5,3424.4,496.7,3417z M-41.4,2170.7 c-5.3-16.7-26.7,2.9-45.4-17.6c-4.8-5.2-10.6-9.5-13-9.5c-16,0-3.2-37.2-20.2-36.1c-14.8,1-18.7-10-12.3-35.2 c8-31.6,4.3-121.3-5.8-141.7c-28.3-56.7-13.2-195.7-21.7-249.9c-13.6-85.9,8.7-161.1,47.9-161.1c6,0,7.9-2,10.3-11.2 c10.3-38.4,43.2-21.9,44.7,22.5c0.8,23.8,3.2,28,6.7,12c2.3-10.6,9.6-14.4,14.6-7.6c8.5,11.6,24.9-6.1,24.9,39.5 c23.7-3.2,22.7-4.8,24.9,8.3c3,17.7,8.1,27.3,5.7,37.1c-1,4.1-0.4,8.2,1.4,9.3c4.4,2.7,11.9,21.3,11.9,29.4 c0,9.9,17.6,26.9,17.6,46.1c0,10.6,11.7,12.4,11.7,34.2c0,18.4,4.9,16.9,13.2,39.8c14.6,40.2,27.9,12,35,101 c4.1,51.6,18.3,97.6,15.3,130.3c-1.2,13.1-0.5,18.8,2.7,22.3c7.7,8.5,10.8,43.9,4.3,49.4c-6.4,5.4-19.4,50.8-50.9,68.1 c-21.7,11.9-21.7,17.1-40.2,25.3c-28.7,12.6-47.3-10.7-59.8,3.1C-17.2,2177.3-33.4,2196-41.4,2170.7z M-399.9,2702.4 c-4.3,6.7-15.2,14.3-15.2,10.6c0-1,2.2-8,4.8-15.5c15.7-44.2-78.5-73,2.3-206.4c21.1-34.9,20.8-22.2-0.5,19.4 C-465.6,2622.1-369.9,2672.4-399.9,2702.4z M-456.6,2754.8c0.7,0-18.9,14.1-6.6-4c9.4-13.9,10.2-29.5,2.5-51.3 c-14.7-41.7-27.6-145.5,11.9-187.3c11.2-11.9,12.3-8.6,3.3,9.8C-492,2617.1-414.5,2722-456.6,2754.8z M-508.1,2701.9 c18.9,9.8-0.2,12.5-10.2,6.7c-21.3-12.4-55.7-109.4-51.1-144c2.9-22-6.5,3.2-6.6,7.5c-0.3,16.1-14.5,21.1-9.1,7 c6.7-17.8,11.8-37.4,13.4-51.9c6.5-57.4,50.9-120.4,54.3-127.3c15.9-32.5,95.7-86.4,116.1-78.6c8.6,3.3-2.2,10.4-21.8,14.3 c-5.2,1-9.5,2.9-9.5,4.1c0,3.5-26.8,13.1-26.1,18.3c1.2,9.2-1,14-11.5,24.5C-609.6,2523.2-534.5,2688.3-508.1,2701.9z M-451.7,2234.5c-1.4,0-53.5,53.2-50.2,49.8c-70.7,72.3-50.3,47.9-49.7,32.2c0.3-7.5,31.8-49.8,37-49.8c4.4,0,3.3,7.7-1.7,11.8 c-5.4,4.4-24.9,30.6,4.2-0.1c15.7-16.6,20.4-23.5,19.4-28.2c-2.8-12.6,16.7-17.2,7.1-4.8c-2.2,2.9-0.4,2,4.1-2 c11.7-10.5,1.7-11.6,14-18.9c7.2-4.2,8.5-6.9,8.5-16.8c0-15.3-2-14.2-21.8,12.1c-58.3,77.4-70.7,60.7-29.8,17.5 c55.1-58.2,54.9-82.4,59.4-109.1c-56.2,77.7-59.8,53.9-51,45.1c6.9-6.9,4.8-36.1-2.2-30.3c-23,18.9-24.9,21.7-24.9,37.3 c0,17.1,2.2,21.1,7.5,13.8c4.7-6.5,8.3-3.1,5.6,5.4c-2.5,7.9-38.3,43.7-43.7,43.7c-5.2,0-14.1-32.7-11.6-42.6 c1.8-7.2,1.5-7.6-4-4.6c-14.5,7.8,16.4,50.2-2.8,59.6c-6.4,3.1-9,6.1-14.5,16.5c-3.7,7-21.4-26.1-21.4-39.9 c0-10.4-1.5-2.2-17.6,0.1c-126.3,18.4-146.5,14.1-163.3,29.4c-10.2,9.3-8.2-0.4,2.5-12.1c19.4-21.3,47.7-13.2,87.6-21 c35.3-6.9,30.8,6.3,54.2-1.6c16.1-5.5,29.3-4.8,37.4-4.9c-7.9-55.6-2-87.7,2.9-162.3c-25.3,0.3-39.1,1.4-41.6-3.9 c-7.8-16.2-7.6-16.1-24.7-16.3c-29.3-0.3-31.9-10.8-8.9-36.3c14.2-15.7,17.3-11.9-14.5-11.9c-24.4,0-32.7-3.8-22.3-10.3 c10.5-6.5-14.8-13.7-33.2-9.5c-22.2,5.1-40.2-11.3-28.3-25.7c22.1-26.6-98.5,20-49.4-42.4l-10.9-10.3 c-12.9-12.2-30.6-14.7-30.6-4.4c0,8-1.4,7.5-13.2-5c-20.7-22-2.3-36.6-15.9-49c-5.9-5.3-6-5.3-6,0.5c0,27.4-10.2,12.7-17.7-25.5 c-3.7-18.5-10.3-41.4-14.8-50.7c-13.5-28.2-9.4-50.2-14.7-53.5c-5.6-3.4-2.8-13.7,3.3-12.1c8.5,2.2,9.1-0.5,5.8-26.1 c-8.7-68.1-15.2-192.1-20.5-214.5c-4.8-20.3,2.1-22.6,9.1,6.7c11.6,48.6,24.3,8.9,30.3,135.2c3.9,82.3,5.2,79.7,18.5,82.1 c16.6,2.9,62.2,30.5,62.2,26.2c0-1.3-45.6-47.5-11.7-51.3c17.1-1.9,15.9,1.2,2.6-11.7c-22.3-21.6-26.8-32.8-18.4-45.5 c4.6-7,4.4-7.6-5.6-18.7c-27.1-30-18.8-44.2,20.5-34.8c17.1,4.1,18.5,4.1,17.2-0.3c-18.9-64.6,45.2-20.1,45.2-29.6 c0-5.3,17.5-28.6,23-30.6c2.6-1,8.1-3.7,12-6c22.2-12.9-5.1,11.4-28.2,43.8c23.2,18.3,70.5,55.1,95.6,87.6 c23.9,30.9,104.5,36.8,179.7,13.2c41.5-13.1,53.1-15,53.1-8.9c0,2.5-7.7,6-20.5,9.3c-33.4,8.7-87.7,34.4-159.6,20.2 c-31-6.1-30.5-8.3-6.1,24.8c10.4,14.1,32,43.1,38.5,65.5c7.9,27,16.7-2.3,60-6.7c9.6-1,22.7-4.3,29.1-7.3 c37-17.3,64.6-13.7,36.6,4.8c-15.3,10.1-13.2,11.4-4.6,29.7c28.9-64.1,112.2-110,128.3-97.7c10.8,8.2,5,24.5-14.8,41.5 c-12.5,10.7-12.6,10.8-5.8,14.1c27.8,13.8-19.6,48.6-2.1,48.6c18.2,0,0.4,41.7-26.9,63.1c-23.7,18.6-23.7,21.9-0.2,21 c35.6-1.2,11.5,32.8-13.2,59.1c60.6,14.6,16.8,34.9,24.4,55.1c6.2,16.2-9,31-23.2,22.6c-10.4-6.2-5.5-7.9-22.3,10.1 c-7.7,8.3-15.1,15-16.4,15c-6,0-33.8,24.1-37.5,32.5c-6.1,13.8-20.1,12.4-21.4,21.5c-0.9,6.4-20.8,10.1-24.3,4.5 c-1.6-2.6-5.9-1.9-17.6,3c-24.6,10.3-33.2,5.6-23.1,20c19.1,27.2,5.6,113,17.1,94.5c0.9-1.4,2.3-11,3.2-21.2 c5.6-64,36.5-95.7,36.5-37.5c0,17.8,1.3,17.9,18.1,0.5c13.1-13.5,13.5-14.6,15-35.9c1.6-23.4,13-61.9,18.7-63.7 c4.8-1.5,15.1,9.4,16.6,17.5c3.5,19.2,8.4,39.5,4.7,46.4c-2.8,5.2-8.8,41.4-7.2,43.2c2.2,2.4,15.4-13.7,17.2-20.9 c1.4-5.6,3.4-7.8,6.2-6.7c13,5,16.7-22.3,4.7-34.1c-9-8.8-9-9.7,0.8-46.1c12.1-45,27.3,29.3,39.3,29.3c3.3,0,3.7,2.1,1.9,9.5 c-2.1,8.5-3.9,81.2-2,81.3c1.3,0,24.1-41.3,24.1-26.4c0,4.4-24.2,38.7-28.5,40.3c-4.7,1.8,0.9,2.1-18.6,31.1 c-32.2,47.7-3.5,38.3,23.7-12.8c5.6-10.4,8.8-8.8,16.6-23.3c9.3-17.4,13.9-23.4,17.7-23.4c5.4,0,4.5,3.8-3.5,14.9 c-10.8,14.9-21.8,43.3-28.9,49.1c-2.7,2.2-4.9,5.1-4.9,6.5c0,6.3-38.9,57.4-40.3,53.1c-2.1-6.3-6.5-0.5-6.5,8.6 c0,8.8-5.6,17.2-11.5,17.2c-4.5,0-1.8-8.8-6.1-8.8c-1.6,0-2.9,1.6-2.9,3.6c0,3.9-34.6,37.4-38.6,37.4 C-519.9,2307.7-433.2,2234.5-451.7,2234.5z M-710.9,2333.2c-1.6-1.6-40.8-5.5-62.8-6.3c-15.7-0.5-23.2-7.6-8.1-7.6 c14.5,0,35.4-29.9,72-36.7c28.6-5.4-28.9-14.2-37.5-22.1c-5.5-5.1,0.7-5.5,11.8-0.8c11.6,4.9,77.4,10.5,80.3,6.8 c3.1-4,44.5-6,43.2-2.1c-2.2,6.6-17,11.6-37.6,12.7c-32.1,1.7-24.7,7.4-48.8,11.4c-16.5,2.7-14.1,7.7-20.1,5.4 c-6.1-2.3-14.6,7-30.4,15.1c-41.5,21.4,130.6,8.6,154.1-13.5c9.3-8.7,27.4-4.2,0.1,9.5c-26.2,13.2-23.4,20.5-51.8,23.7 C-646.4,2328.6-708.1,2335.9-710.9,2333.2z M-1003.4,1696.6c5.1,19-12,71.9-12,30.2c0-6.5-1.5-23.3-3.3-37.3 c-7.5-58.4,19.6-117,18.4-246.4c-1.5-158.5,23.3,47.1,5.3,142.8C-1001.9,1621.8-1006.6,1684.8-1003.4,1696.6z M-1037.4,1370.5 c-8.6-38.5-13.6-86,12.6,17.6c19.8,78.2-2.3,136.2,4.2,138.4c2.5,0.8-1.7,6-2.1,6C-1047.9,1557.7-1024.9,1426.3-1037.4,1370.5z M-1012.8,683.8c-25.9,34-74.7,145.6-73.3,145.6c-8.1,20.5-10.1,20.9-12.6,2.9c-6.7-48.3-12.8-32.7,23.2-97.8 c126.7-228.9,338.8-310.6,353.6-295.9c2.5,2.5,2.3,3.4-0.9,3.5c-4.2,0.1-7.8,2.6-42.2,28.8C-806.7,502.7-908.8,547.1-1012.8,683.8z M-1066.7,1377.7c-16.5-81.6-1.5-156.1,4.5-65.3c2.3,34.5,6.6,69.5,14.2,114.5c3.9,22.8-12.7,106.8-24,121.5 c0,0.5-16,21.4-0.7-24.2C-1056.9,1477.2-1055.2,1434.6-1066.7,1377.7z M-527.5,196.2c-101.2,11.6-111.2,33.5-139.9,39 c-36.3,6.9-93.9,46.3-133.1,59.1c-35.6,11.6-71.7,33.4-82.8,33.6c-5.4,0.1-23.8,13.9-23.8,7.3c0-10.7,276.6-147.6,360.2-148 c10.5-0.1,42.7-12.4,50-10.1c11.9,3.8,41.9-13.1,55.4-4.5C-429.1,180.4-457.7,188.2-527.5,196.2z M-432.6,286.7 c13.7-1.8,31.2-4.5,38.9-6c18.5-3.5,72.4-3.4,66.4,0.2c-13.1,7.7-171.5,24.1-212.2,44.9c-16.7,8.5-54.2,10-52.1,2 c1.6-6.1,13.4-10.6,33-12.4C-531.1,312.7-488.6,294.2-432.6,286.7z M-855.8,594c44.6-29,46.7-26.5,6.1,7.1 c-102.6,84.7-113,179.2-113,124c0-17.5-0.6-19.6-5.1-18.2C-999.7,717-924.4,638.6-855.8,594z M-816.8,1309 c-16.7,16-16.8,5.8-9.5-0.2c15.3-12.7,18.7-44.8,72.9-60.7c63.6-18.6,70.8-19.9,89.2-16.3c16.9,3.4,13.3,16.5-7.1,26 C-719.6,1280.1-798.4,1291.5-816.8,1309L-816.8,1309z M-697.1,715.9c14.6-18.2,16.4-8.8,5.6,2.8 C-701.9,729.9-706.5,727.7-697.1,715.9z M-685.2,613.7c-14.6,7.2-9.1,9.9-16.7,9.9c-8.6,0-6.3,6.6-16.3,5.3 c-13.1-1.7-40.2,33.8-64.2,37c-36,4.8-24.6,16.1-34.5,12.6c-0.3,0-4.1-1.3-10.4,1.1c-17.9,6.6,4.8-26.4,11.4-24.5 c3.6,1,20.1-7.6,20.1-10.6c0-2.8,40.7-17,56.6-19.7c16.9-2.9,11.7-10,16.8-10c4.5,0,36.3-15.3,37.4-17.9c0.5-1.4,4.2-2.6,8.1-2.6 c9.9,0,4-6.6,15.1-5.3C-639.6,591.6-667.2,604.8-685.2,613.7z M-588.6,579.7c8.5,0,8.6-0.1-4.9,22.8c-22.5,38.5-31.2,51-46.5,66.7 c-0.3,0-15.5,15.9-17.6,15.8C-687.6,684.5-619.1,579.8-588.6,579.7z M-828.7,1421.9c96.6-91.4,244.1-28.3,262-82.2 c7.4-22.2,38.7-27.8,18.5-11.6c-23.9,19.1,8.6,45.7-112.8,49c-45.7,1.2-57.2,2.5-73.2,7.9c-25.3,8.6-52,23-55.1,29.8 c-0.1,0.3-39.6,25.1-39.6,24.8c-10.7,8.9-25.4,9.3-25.4,0.6C-854.4,1434.7-854.9,1446.7-828.7,1421.9z M-574.4,1113.8 c13.7-18.6,40.8-4.9,93.4,1.9c72.9,9.5,31.5,21.6,134.9,24.3c190.9,5,54,67.9-54.3,43.2c-60.8-13.9-125.2-12.1-167.7-50 C-583.8,1119.3-582.4,1124.6-574.4,1113.8z M-548.7,1048c95.3-24,334.9,45.6,255.1,74c-79.2,28.3-182.9-29.1-199.4-22.8 c-5.1,2-45.6-4.8-67.1-11.3C-587,1079.9-580.1,1055.9-548.7,1048z M-494.8,1596.4c-2.7,8-54.5,10.9-67.7,15.9 c-3.4,1.3-5.6-0.5-7.7-6c-4-10.5-4.1-10.3,5.1-10.4c7.2-0.1,7.5-0.4,2.6-3.3c-8.2-4.7-18.1-15.3-17.1-18.3c2-6.1-9.3-5.4-7.5-24.2 c1.3-14.2-0.2-14.1,4.7-2.8c4.8,11.1,8.5,8.4,2.1-3.9c-9-17.4-1.6-71.6,6.9-39.2c7.4,28.1,12.3,53.8,10.8,56.3 c-2.3,3.8,6.5,12,12.9,12c7.9,0,10,8.8,17.7,8.8c8.6,0,13,7.7,6.8,11.6C-536.1,1599.6-492.3,1588.9-494.8,1596.4z M-628.6,1602.1 c0.3,0,14.2,11.5-6.1,4.5c-23.3-8-56.5-54.1-44.4-61.5c2.8-1.7,7.7,6.4,6.7,11c-0.3,1.4,0.2,5,1.2,8.1c2.4,7.5,10.2,7.1,10.2-0.5 c0-10.5,5.1,1.5,33,16.4c26.2,14,7.9,20.1,3.6,13.1C-627.4,1588.3-642.7,1588-628.6,1602.1z M-720.4,1495.2 c-21.4,34.3-58.2,26.5-35.8,16.3c10.8-4.9,41.7-41.5,47.3-41.5c2.1,0,6-3.4,8.7-7.5c8.3-12.7,40.2-23.3,64.1-21.3 c21,1.8,15.1,9.5-8.8,11.5C-677.8,1455.5-705.4,1471-720.4,1495.2z M-655,1532.3c-0.7-24.6,22,29,15.6,3.7 c-2.6-10.3,3.2-9.2,7.6,1.5c5.1,12.2,10.1,13.8,6.1,6.3c-3.8-7.2-4.2-20.1-0.7-22.2c4.9-3,14.3,11.6,16,24.6c1.3,10.1,3.8,15,11,21 c11.4,9.6,6.1,12.2,7.3,11C-598.3,1588.1-654.6,1547.1-655,1532.3z M-595.4,1592.5c27,3.2-5.4,10.2-11,4.6 C-610.2,1593.2-605.5,1591.3-595.4,1592.5z M-559.1,1500.3c1.3,10.9-4.4,9.9-6-1C-566.9,1486.6-560.3,1490.7-559.1,1500.3z M-848.5,1339.2c-0.5,0-11.7,8.5-13.9,17c-5.1,19.8-14.2-9.4,14.5-24.1C-833.4,1324.7-833.8,1328.7-848.5,1339.2z M-885.5,1173.9 c-2.5,12.4-5.8,11.5-8-2.3c-2.8-17.5,1.9-53,7-53C-883.4,1118.6-882.6,1159.3-885.5,1173.9z M-410.7,2267 c-29.2,28.6-24.9,14.6-13.9,3.3c47.3-48.8,74.3-105.8,73.8-79C-350.9,2203.1-369.7,2226.9-410.7,2267z M-439.6,1321.9 c-12.7-8.5-72.1-43.7-72.1-56.3c0-9.6-47-1.4-61.1-9.1c-9-4.9-8.5-2.3-1.1-9.7c11.8-11.8,40.3-11.7,56.3,0.1 c9.6,7.1,14.7,4,14.7-8.7c0-8.5,16.7-22.9,26.5-22.9c2.5,0,5.8-1.2,7.4-2.6c18.3-17.4,128.2,17.6,140.3,20.6 c53.2,13,95.6,48.8,80.6,67.9c-5.6,7.1-5.7,8.3-1.5,20.2c16.8,48.1-33.8,59.3-84.8,49C-378.4,1361.3-386,1357.8-439.6,1321.9z M-328.7,2100.3c2.8-2.8,7.3,5.8,7.3,14.1c0.2,26.4,33,51.9,73.3,57c85.2,10.6,120.6,64.4,138.4,73.7c6.3,3.3,8.8,8.5,8.1,8.5 c0,24.4-71-74.5-153.6-72.3C-307.2,2182.6-339.1,2110.7-328.7,2100.3z M-162.4,1179.4c-11.4,23.6-19.7,17.5-15.2-11 c6.6-41.5,23.4-77.5,27.2-58.3C-143.2,1146-162.4,1179.7-162.4,1179.4z M-142.8,1156.7c9.7-45.5,17.5-41.4,17.9-31.5 c0.2,6.3,0.3,6.3,2.6-0.7c14.6-44.5,49.3-54.5,38-10.9c-14,54.1-33.2,89.8-46,85.8c-7.8-2.5-9,8.3-9.7,7.6 c-9.8,21.8-17.3,10.5-10.8-16.1C-148.3,1180.9-144.7,1165.5-142.8,1156.7z M-165.5,1262.2c13.1,0,28.5-3.7,31.8-7.7 c3.9-4.7,11.5-5.5,11.5-1.2c0,1.6,8.1,2.9,18.5,2.9c36.1,0,32.9,124.5-3.5,136c-3.8,1.2-11.5,7.5-10.8,7.5 c-11.8,13-24.8,7.2-24.8-11c0-23.3-7.2-1.3-6.7-81.3c-20.4,124-47,106.9-41.8,43.9C-187.1,1302.3-175.6,1262.2-165.5,1262.2z M254.1,1472.9c-2.5-4,4.2-23.8,7.4-21.9c1.4,0.9,10,14.2,19.2,29.6c25.2,42.2,24.6,27.6,24.6,34.6c0,5.6,13.6,16.2,16.8,13 c1.7-1.7,6.8-1,13.3,1.7c15.8,6.6,17-0.9,22.4,5.6c5.6,6.8-7.9,14.4-21.2,11.9c-8.7-1.6-10.5-1-12.2,4.2c0.3,0,0.7,19.6-39.7-24.6 c-35.3-38.6-43.5-51.3-33.5-51.3C253.9,1475.9,255.1,1474.6,254.1,1472.9z M355.5,1395c57.4,2.9,69,36.6,100.3,62.3 c20.1,16.4,4.8,23.1-49.1-33.8C392.5,1408.4,290.9,1391.8,355.5,1395z M270.2,1556.3c2.7,7.1,39.3,13.3,45,7.6 c3.5-3.5,10.7-0.6,10.7,4.2c0,5-18.2,6.5-26.5,9c-2.5,0.7-5.8,0.2-7.3-1.1c-6.9-6.1-38.5-12.9-44.6-9.6c-22.7,12.2-45.9-10-46-44.1 l0-16.6C214.9,1513.3,264.3,1540.8,270.2,1556.3z M227.7,313.1c-2.5-4-17.8-1.5-20.7-6.1c-5.7-9.2-81.3-36.5-90.8-32.8 c-2.4,0.9-6.6-0.4-9.4-2.9c-6.9-6.2-36.3-12.5-62.4-22.1c-31.6-11.6-33.4-2.9-105.7-21.1c-20.3-5.1-14.3,2.2-30.3-4.5 c-17.6-7.4-46.3-1.4-68.7-6.9c-21.9-5.4-46-8-52.4-5.6c-8.6,3.2-57.2,0.3-58.4-3.5c-1.8-5.4-9.2,6.2-9.2,0.6c0-6,13.6-7.5,63-6.9 c219.8,2.6,502.7,107.1,591.6,171c20.6,14.8,43.1,23.4,56,34.2c15.3,12.8,42.1,32.6,42.1,35.9c-16.2,0-113.3-66.3-114.3-67.1 c-19.4-14.4-29.2-7.5-29.2-12.1C328.8,359.3,231.4,319.1,227.7,313.1z M283.3,374.9c-3.3,5.4-77.4-19.5-74.6-25.1 c2.2-4.5,10.7-2.9,41,7.8C281,368.6,285.7,371,283.3,374.9z M536.5,663c17.9,19.3,51.5,133.4,43.8,148.6c-4.6,9-0.3,36.4-12.1,24.6 c-7.2-7.2-10.9-1.7-10.9-12.7c0-13.8-106-253.2-100.1-259.1c3.6-3.6,23.3,8.4,25.5,15.5c1,3.1,2.9,5,4.2,4.2 c3.5-2.2,44.1,62.6,44.1,70.3C530.9,655.9,533.4,659.7,536.5,663z M396,294.7c4.7-4.7,91.7,59.2,91.7,72.6c5,26-28.5-27.9-79-53.6 C396.3,307.3,391.1,299.6,396,294.7z M378.6,283c0.2,11.7-4.1,0.9-61.4-19.8c-14.5-5.2-27.9-17.9-30.3-15.4 c-2.9,2.9-37.3-28.4-60.3-28.4c-10.8,0-39.4-10-49.8-17.5c-11.1-7.9-38.4-15.6-104.1-29.2c-27.8-5.8-32.6-14.9-73.1-16.6 c-37.8-1.6-45.6-10.6-77.7-11.5c-51-1.5-28-12.6-131.9-14C-365.2,128.6-106,85,245.3,214.9c59.2,21.9,49.2,10.4,64.7,21.6 C315.7,240.6,378.4,276,378.6,283z M-987,245.8c2.1-8.1,37.7-31.6,48.5-32.1c1.2-0.1,7.2-3.2,13.2-7c16.4-10.3,27.9-7.5,38.9-17.3 c23.6-21,26.2-9.6,31.2-17.7c3.5-5.7,22.3-7.6,38-18.3c14.1-9.5,19.6-5.7,24.4-11.6c5.7-6.9,9.8-2,18.9-8.9 c8.4-6.4,10.6-2.1,23.2-8.7c4.6-2.4,10-4.4,12-4.4c5,0,13.3-9.7,13.3-15.6c0-4.1,0.9-4.4,5.7-1.4c5.7,3.6,8.2,2.9,27.2-6.8 c104-52.9,628.3-66.3,812,4.7c49.6,19.2,112.3,35.9,155.2,58.1c9.7,5,107.7,51.8,81,51.8c-3.3,0-6.7-1.3-7.7-2.9 c-4.4-7.2-104.6-54.1-140.6-65.9C82.8,101.3-38.9,60.1-312.6,66.7c-79.8,1.9-157.5-0.9-240.2,11.8c-79.9,12.3-138,35.5-141.7,35.5 c-12.4,0-274.5,128.9-279.5,128.9C-977.9,242.9-990.8,260.5-987,245.8z M-1053.7,330.4c12.4-27.8,122.9-76.5,137.2-89.7 c5.6-5.2,15.3-2.6,15.3-6.1c0-3.2,15.2-8.9,51.3-23.8c29.2-12,40.7-7.9,66.5-20.7c9.8-4.9,18.5-8.2,19.2-7.4 c0.8,0.8,6.2-0.7,12-3.2c25.1-10.9,71.9-14,80.5-21.2c6.4-5.3,3.8,2.8,15.8,0.6c147.3-25.9,397,2.5,552.8,2.2 c56.3-0.1,80.5,2.7,80.5,9.3c0,1.8,1.4,1.7,3.7-0.1c4.1-3.3,39.4,0.1,48.1,4.7c15,7.7,21.1,9.8,23.8,8.1c4.7-2.9,0,4.5,16.7,4.8 c21.9,0.4,116.7,39.8,117.1,39.9c45.9,11.5,70.4,28.2,71.2,30.1c0.1,0.3,205.4,85.5,251.9,152.8c33.2,48,10.9,32.7-1.1,14.7 c-15.3-23.1-40.1-43.9-67.4-58.4c-28-14.8-32.4-21.8-39.7-21.8c-7.1,0-28.5-22.6-60-33.2c-18.8-6.3-6.5-9-128.6-64 c-43.1-19.4-36.1-20-42.6-20c-12.6,0-58.1-22.1-151.7-41.1c-37.7-7.7-33.9-12.3-36.3-9.9c-1.1,1.1-369.5-20.3-551.3-12.2 c-177.9,8-322.8,83.7-329.2,83.7c-7.6,0-25.3,15.1-52.6,29.3c-24.8,12.9-19.2,17.5-28.2,17.5c-9.3,0-8.6,6.5-24.6,11.3 c-16.4,4.9-16.7,12.2-22.3,12.2c-5.2,0-13.5,11.1-25.7,18.9C-1062,344.9-1060.9,346.5-1053.7,330.4z M-1190,799.4 c10-71.4,18.5-99.6,49.5-165.4c109-231,255.8-235.6,294.9-274.3c12.4-12.2,20.2-14.1,9.1-2.2c-4.5,4.9-5.2,7.2-2.6,8.8 c4.8,3-0.7,1.5-28.4,19.8c-45.1,29.8-43,36.4-85.1,55.7c-189.8,86.8-200.6,429.4-219.8,506.2c-1.7,13.7-6.6,21.3-7.4,11.7 c-0.2-2-0.5-6.2-0.7-9.3c-0.5-6.7-7.7-10-7.7-3.6c0,2.5-1.4,5.3-3,6.3C-1194.6,955.2-1193.4,824.1-1190,799.4z M-1191,4293.3 c-3,44.9-2.2,38-7.3-4.4c-12.3-102.5-98.8-166.9-80.9-325.9c4.6-41.3,5.9-87.9,28.3-122.9c13.6-21.3,9-21.3,12.4-21.3 c3.3,0-1.4,29.4-5.3,33.3c-1.7,1.7-3,5.1-3,7.6c-0.1,14.4-15.8,5.3-16,126.1C-1263.2,4188.6-1183.6,4185.2-1191,4293.3z M-1189.7,3709.8c-16.4,40.5-15.5,71.9-46,107.6c6.1-27.1,15.2-36.9,15.2-46.8c0-3.4,1.1-7.4,2.4-9c4.6-5.3,16.8-57,26.1-57 C-1189,3704.7-1188.3,3706.3-1189.7,3709.8z M-1155,2889.9c-24.2,120.6-12.4,167.2-33.7,265.1c-22.2,102.3,7.3,176.5-24.3,278.8 c-0.3-0.1-18,56.5-4.5-22.6c16-93.9-3.4-148.3,3.2-207.3c4.2-37.1,14.1-63.9,9.3-66.9c-5.2-3.2-11.5-88.2-24.1-146.9 c-13.6-63.3-32-122.7-20.5-168.4c7.2-28.4-0.5-132.4,12.8-168.4c16.1-43.6,3.3-81.7,26.8-137.7c8.2-19.6,16.7-64.3,36.4-86.4 c41.5-46.5,60.9-276.2,67.3-309c16.1-82.9-19.5-88.8-43.2-142c-13.6-30.4-41.4-88.7-46.2-115.7c-6-33.9-80.4-136.2-80.4-290.5 c0-52.4,0.5-58,5.3-61.5c7.8-5.6,32.8-55,32.8-64.8c0-2.2,2.3-8.6,5-14c14.5-28.7,14.9-211.3,0.5-226.5 c-3.6-3.9-22.9-205.9-18.6-89.5c11.3,304.1-9.1,270.8-8.7,235.5c1.4-108.2-6.4-342.1,35.4-426.2c16.4-32.9,9.7-59.7,18.5-59.7 c8.6,0-0.8,52.9-12.2,68.8c-4.5,6.3-17,41-17.1,47.6c0,1.2,2.1,2.2,4.8,2.2c4.3,0,4.2,0.7-0.7,6.2c-18.9,20.9,4.3,182.8,4.7,185.7 c7.3,65.8,49.1,226.6-29.8,338.9c-22.4,31.9-6.5,151.2,32.6,243.9c27.7,65.6,40,92.7,47.4,121.8c9.2,36.4,65,152,83.3,172.7 c8.7,9.9,0.8,53.2-6.2,131.6c-7.6,83.9-38.1,172.8-5,180.4c11.1,2.6,27.4,18.7,35.4,18.7c3.1,0,9.5,4.4,14.2,9.7 c8.1,9.2,11.5,16.2,17.3,35.5c2.9,9.7,8,10.7,9.4,1.8c1.3-8.3,5.5-7.5,10.5,2.1c6.4,12.2,25.1,26.5,25.3,31.3 c0.2,4.1,21.9,28,25.4,28c11,0,56.5,54.3,56.5,67.5c0,12.3-0.4,12-32.9-22.1c-62.4-65.5-17.7-8.5-24.2-2 c-4.8,4.8-76-69.6-81.2-64.5c-3,3-3.3,111.9-0.6,167.6c2.1,43.6,2.8,41-19.5,77.1c-15.3,24.7-37.4,96.8-42.3,137.9 c-9.7,81.5-17.2-67.2,37.8-159.3c18.7-31.3,15-7.6,14-111.3c-0.9-99.6,2.2-108,4.4-124.3c-34.5-32.1-32.3-34.8-41.7-5.1 c-22.4,70.7-51.6,120.5-107.3,175.9c-15.8,15.7-20.3,39.3-21.7,113.1c-1.6,87-10.3,119.9-6.9,142.9 c21.2,142.6,32.7,166.4,30.3,221.7c-2.8,66.5,8.7,5.5,13.2-70.1C-1177.8,2863.1-1126.4,2747.7-1155,2889.9z M-1145.7,2813.6 c2.7-8.8,7.2-13.5,7.2-7.4C-1138.5,2821.4-1149,2824.5-1145.7,2813.6z M-1106.3,3418.4c-0.3-0.3-13.6,13.9-17.2,13.9 c-5.1,0-4.2-1.9,5.8-12.1c18.9-19.4,24.5-42.9,27.4-116.4c3-75.4,11.3-96.3,10.5-107.3c-3.9-51.6-21.9-140-19.1-184.8 c7-114.1,71.3-182.6,85.4-182.7c6-0.1,39.2-52.5,47.9-60.7c26-24.5,67.4-121.6,86.1-158.8c57.6-114.6,51.4-39.2,47.3-183.2 c-1-35.1-2.5-47.5-7.5-61.5c-31.3-88.2,14.6-3.2,14.6,28.5c0,18.1,15.7-4.4,92.8-15.3c16.1-2.3,28.2-6.7,51.7-18.8 c72.5-37.5,82.5-13.5,63.3-13.5c-32.1,0-60.7,32.7-140.6,49.6c-45.5,9.6-62.8,16.3-63.8,24.5c-1.1,9.5-0.9,9.5,14.9,2.2 c52.9-24.5,125.9-23,138.9-31.5c13.2-8.6,40-18.4,50.7-18.4c14.2-0.1,15.2-1,30.1-30.9c14.2-28.4,20.8-36.4,25.9-31.4 c5.2,5.2-40.3,84.8-21.7,63.6c9.6-10.9,43.4-7.5,58.5-18.2c6.9-4.9,48.7-24.1,52.5-24.1c7.8,0-2.6,8.9-15,12.8 c-10.1,3.2-17.9,7.8-20.8,12.2c-17.8,27.1-67.2-32.7-103.7,172.7c-31.6,177.8-120.4,256.5-80.8,197.5 c52.3-78,66.6-250.3,88.1-297.3c17.4-38.1,54.8-69.7,24.2-48.5c-82.7,57.2-66.1,265.6-211,457.3c-14.6,19.3-37.3,41.1-42.8,41.1 c-1.8,0-3.2,1.2-3.2,2.7c0,3.7-16,11.3-33.7,25.2c-15.9,12.5-19,14.1-19,9.6c0-2.1,4.3-6.8,9.5-10.3c14.7-10.1,32-28.4,50.4-42.1 c41-30.7,75.6-187.7,83.9-238.4c14.8-90.5,30.7-103.1-5.1-76.7c-39.9,29.4-51,58.7-61,160.1c-5.6,56.5-12.3,76.8-45,136.2 c-25.9,46.9-61.3,78.9-128.8,116.1c-65.6,36.2-90.3,310.3-92.5,374.4C-1079.5,3378.3-1086.3,3398.3-1106.3,3418.4z M-674.8,4108.2 c5.7,26.7,6.7,91.3,1.5,101c-2.5,4.7-2.5,6.5,0,7.4c4.7,1.6,4.2,6.5-0.7,6.5c-2.7,0-4.7,5.2-6,15.6c-5,40.3-33.7,85.3-16,26.3 c18.3-61,21.5-94.8,13.8-147c-5.1-34.9-5.6-43.8-2.7-52c4.7-13.1-7.6-77.1-20.2-105.1c-16.5-36.6-4.7-55.3,3-23.8 c5.8,23.8,32.6,103.9,25.5,134.4C-679,4082.6-678.7,4089.9-674.8,4108.2z M-791,3486.5c1.2,16.3,1.5,226.4-7.8,217.1 c-3.4-3.4,6.3-47.5,1.4-187.8c-4.6-132.7,1-192.3,23.5-253.3c5.5-14.8,12.5-23.9,9-11.7C-789.3,3337.3-798.3,3390.1-791,3486.5z M-930.6,3583.1c-4.5,5.1-23.4,42.7-23.4,46.6c0,3-18.1,28.1-20.2,28.1c-5.1,0,0.3,8.3-31.7,39.5c-18.8,18.3-7.6,17.2-25.3,24.8 c-13.5,5.8-45.7,37.4-45.7,22.4c0-5.7,10.8-6.3,28.3-20c199-156.2,98.3-487.7,155-524.9c9.3-6.1,9.9-5.8,6.9,3.6 C-910.1,3277.1-897.2,3545.3-930.6,3583.1z M-909.4,4645.5c-13.7,20.7-16,14-4.5-12.9c56.7-132.5,125.9-179.6,169.2-258 c8.7-15.7,15.6-16.3,9.1-0.7c-20,48-44,46.9-118.3,193.4C-881.8,4622.3-891.4,4618.4-909.4,4645.5z M-786.1,4724.6 c0.3,0,2.1,49.7-4.8,38.1c-2.7-4.5-8.3-65-6.6-70.4c1.8-5.6,6.3-92.9,65.7-144.9c8.3-7.3,13.2-16.7,6.5-12.5c-3.2,2-10.5-6,0.4-3.3 c7.6,1.9,37.7-20,41.7-30.3c0.9-2.4,6.2-7.7,11.6-11.7c13.9-10.3,12.9-18.5,37.5-44.5c40.2-42.4,55.4-71.2,50.2-50 c-4.9,20.1-18.6,23.8-62.6,81.3C-697.5,4543.2-788.1,4577.7-786.1,4724.6z M-688.3,4671c-20.1,49.7-6.6,81.9-6.3,81.6 c5.6,19.3,4.4,21.6-3.7,7.1c-22.1-40-13.9-88.7,25.6-151.5c14.8-23.6,14.1-46.2,87.1-88.1c14-8,7.2-10.1,14-10.1 c6.4,0,52.1-46.7,56.8-57.9c2.2-5.2,5.1-9.5,6.5-9.5c7.3,0,31.2-82.2,31.7-105.4c0.1-6.2,1.2-8.8,2.5-6.6 c9.4,14.8-17,95.5-17.1,99.6c-0.1,21.1-52.4,81.9-86.1,100.1C-626.4,4556.9-658.8,4598-688.3,4671z M-549.8,4625 c1.5,1.5-2.6,26.7-7.4,4.9c-6.4-29.1,15.8-92.5,41.7-119.1c6.9-7.1,12.6-14.4,12.6-16.1c0-4.6,28-28.2,37.7-43.9 c10.2-16.5,17-13.1,21.4-25.8c1.1-3.1,34.6-48.3,34.6-79.6c0-21.3,12-38.3,12-83.9c0-38.1,2.2-53,7.8-53c3.8,0,4.1,3.7,2.1,27.1 c-7,80.8,7.5-16-15.6,127.3C-419.5,4465.3-549.8,4516.6-549.8,4625z M-347.9,4411.8c-5.8,12.5-17.6,54-69.6,103.3 c0-1.2-32.8,34-32.8,21.2c0-9.5,123.5-95.1,109.8-235.7c-2.8-29-2.6-59.7-10.9-75.8c-3.9-7.6-3.5-58.4-9.5-78.8 c-12.1-40.7,4.4-46.3,4.4-25.9c0,16.3,6.9,22,11.4,66.5C-333.9,4299-313.4,4337.4-347.9,4411.8z M-267.7,4453.9 c-9.1,35.9-14.8,25.9-8.4,1.2c44.5-171.6,4.7-340.4,4.5-341.9c-6.4-52.1-17.6-43.4-30.5-80c-12.8-36.3-64.5-85-95-120.2 c-11.2-12.9-4.8,81.6-15.8,81.6c-8.6,0,18.1-68.1-20.1-147.7c-17.3-36.2-121.8-259.7-146.4-307.3c-11.5-22.3-14.3-35.3-28.5-73.6 c-25.5-69.4-3-54.7,18.3-128.9c7.8-27.1,7.4-26.2,10.7-22.8c4.1,4.1-0.7,21.3-15.6,56.5c-35.1,82.5,28.1,161,75.6,273 c14.9,35.2,34.9,58.7,18.8,21.4c-7.6-17.7-14-45.3-22.1-74.7c-36.6-132.8-1.5-352.2,0.2-354c14.2-14.2-48.9,260.7,29.9,433 c19.3,42.2,88.7,216.3,88.8,216.6c19.3,61,142.6,82.6,157,350.1C-240.7,4338.3-268,4453.7-267.7,4453.9z M-283.2,2798.6 c12.4-11.9,15.8-13.3,51.3-22c58.6-14.3,59.9-14.5,61.5-11.8c2.2,3.6-18,11.6-34.2,13.5c-11.1,1.3-13.3,2.6-12.2,6.8 c3.3,12.8-33.2-3.2-83,45.6c-45,44.1-49.4,42.1-76.4,96.2c-29.1,58.3-19.8,178.5-34.9,215.1c-2.2,5.4-4.1,12-4.1,14.6 c-0.2,19.2-53.7,103.5-59.9,103.5c-9,7.6-14.2,6.7-6.7-1.2c13.4-14.1,33.7-56.4,43.6-69.2c16.1-21.1,25.8-171,27.6-195.3 c5.6-76,40.4-98.5,51-119.5c8.5-16.8,10.6-16.9-8.5,3.1c-123.6,128.9-158.1,350-167.8,359.6c-4.7,4.6-0.1-18.7,13-65.9 c15.7-56.7,15.5-56,7-41.7c-22.7,38.1-44.6,114.1-32.7,60.7c3.9-17.4,40.8-90.4,63.1-145c63.1-154.7,221.3-298,227.8-291.5 c2.9,2.9-105.2,98.9-101.8,102.3C-357.4,2858.3-299.7,2814.3-283.2,2798.6z M-250.3,2747.7c17.8-19.6,31.9-14.4,9-0.9 C-253.7,2754.2-256.4,2754.4-250.3,2747.7z M-388.7,3181.7c0-1.5,16.8-24.1,20.6-27.7c70.6-67.2,11.7-179.6,110.6-272.4 c34.4-32.3,42.8-34.6,12.5-3.5c-97.1,99.9-27.9,189.2-122.8,291.3C-366.9,3169.4-388.7,3190.5-388.7,3181.7z M-549.5,3374.3 c0.9,11.3-1.1,128.2-10.3,91.6c-3.2-12.6,2.9-91.1,7.3-93.8C-551,3371.2-549.7,3372.2-549.5,3374.3z M-275.5,3432.4 c-28.8,9-31.5,6.6-6.6-5.8c52.7-26.5,70.1-79.2,43.4-131.4c-19.2-37.6-12.1-35.5-33.2-73.8c-16.2-29.5-16-31.3,2-14.3 c15.7,14.9,22.4,26.9,34.1,61.1c17.3,50.6,19.5,69.1,12.5,104c-2.3,11.3,5.5,10.8,6.9-43.2c1.3-50.7,9.2-56.4,9.2-6.6 C-207.3,3388.9-224.3,3416.4-275.5,3432.4z M-125.5,3170.8c-24-47.1-100.7-63.7-110.7-61.7c-7.7,1.5-9.3,0.7-12-6.4 c-9-23.7,33.2-24.9,64.4-1.8c4.1,3,11.3,7.5,16.2,10c19.2,10,57.1,54.4,57.1,66.9l0,0C-110.5,3186-120,3181.6-125.5,3170.8z M-154.4,2759c0-3.3,14.3-6.1,16.2-3.2C-135.7,2760.1-154.4,2764.4-154.4,2759z M-482.4,2896.7 C-619,3033.9-608.4,3013-608.4,3016.4c0,0.4-80,105.1-83.4,99.6c-6.4-10.3,62.9-81.8,62.9-93.3c0-9.6-15.6,21.7,199.2-198.7 c106.2-109,154.6-141.4,244.5-163.7c55.1-13.7,180.1-15.3,180.1-2.3c0,3.6-63.1-5.5-99.6,2.4 C-289.4,2700.5-284.7,2698-482.4,2896.7z M33.4,3867.5c-7-4.3-9.3,359.3-22.1,293.3c-0.7-3.6-3.4-22.4-6.1-41.7 c-17-124.2-37.9-145-14.8-197.7c29.1-66.3,6.9-365.4,22.6-265.9c8.3,52.6,6.2,69.9,9.2,65.7c3.2-4.4-8.4,84.6-3.8,87.5 c4.5,2.8,0.8,14.6,6.8,17c5.3,2,6.2,21.2,9.5,35.4C36.2,3867.1,35.8,3868.9,33.4,3867.5z M-8,3583.1c0-27.7,13.1,27.4,10.8,29.7 C1,3614.6-8,3589.8-8,3583.1z M26.6,3743.8c4.1,2.6,4.7,42.2-0.5,16.1C23.6,3747.6,23.8,3742.1,26.6,3743.8z M74.8,3247.2 c-4.1,38.3-4.1,38.3-13.8,36.4c-7.1-1.4-7.4-2.3-7.4-22.3c-0.1-30.5-16.4-191.3-24.6-138.7C10,3244-69.7,3425.8-74,3485.5 c-4.9,68.5-19.2,63.6-11.5,33.4c7.4-28.9-8.1-17.2,20.3-104.1c77.1-236,135.9-352.5,26.2-438.8c-2.3,13.7-28.2,169.6-38.1,159.8 c-4.7-4.7,27.9-126.7,27.6-168c-0.1-9.9,1.5-20.9,3.4-24.6c11.3-21.1,1.7-136.6-15.8-190.9c-37.5-116,44.2,18.6,22,210 c40.3,42.1,64.2,78.7,65.8,84.9c11,43.7,25.9-168-42.8-272.4c-11.7-17.7-12.6-27.4-20.2-35.7c-10.8-11.5-12.6-39.5,7.1-3.5 c9.5,17.4,22.9,25.8,52.7,116.4c33.6,102.3,11.7,207.1,18.4,220.9C77.4,3147.4,82.5,3174,74.8,3247.2z M73.6,2276.3 c-31.5,0.9-39.3-29.8-17.1-37.7c3.8-3.1,16.9-12,23.2-24.1c10.8-21.2,29.5-38.5,44.6-41.2c16.8-3,43.6-19.8,43.6-27.3 c0-7.8,8.8-7,8.8-12.7c0-13.1,20.3-16,28.6-4.1c2.2,3.1,5.9,5.7,8.2,5.7c5.6,0,0.3,4.4,16.1,21c17.3,18.2,24.3,44.3,42.4,63.8 c24.7,26.5,18.4,56.5,18.8,70.7c0.6,22.3-3.5,29.1-17.6,29.1c-13.4,0-13.2-1.6-3.3,27.1c5,14.4,10.8,19.5,7.6,6.6 c-4.1-16.5,18.7-14.9,40.5,103.3c3,16.1,2.7,20.1-2,32.2c-9.9,25.5-2.7,24.8-26.2,48.8c-17.8,17.8-57.5,43.1-57.5,36.9 c0-4.9,40.5-30.7,51.1-56.4c2.8-6.9,6.3-14.8,7.7-17.5c13.5-26.3-1-106.8-26.1-144.6c-12.7-19.1-14.5-42.2-20-42.2 c-2.1,0-6.3-2.4-9.2-5.4c-5-5-40.4-14.2-43.4-11.3c-3.3,3.3-37.1-12.9-67.7-10.7C95.5,2288.2,92.5,2275.8,73.6,2276.3z M168,3177.5 c8.2-23.4,17.5-50.2,20.5-59.5c33.6-103.3,36.4-258-23.3-362.2c-0.2-0.3-53.4-93.7-61.7-93.7c-3.4,0-5.8-10.3-3.3-14.4 c2.4-3.8,6.1,0.1,19.3,20.2c14,21.2,22.6,23.9,34.5,47.5c12.1,24,17.3,20.3,24,40.7c23.4,70.6,42.4,114.5,42.4,159.6 c0,9.1,1.3,15.9,3.1,15.9c6.1,0,23.2,50-3.1,7.3c0,28.9,1,76.1-10.4,121.5c-31.5,125.2-98.2,235.7-57.1,386.6 c42.1,154.1,31.7,203.9,25.1,147.9C160.5,3445.8,93,3390,168,3177.5z M188.5,3745.7c0.2-45,5.2-21.9,5.4,1.5 C194,3771.5,188.3,3790,188.5,3745.7z M183.6,3646.1c-2.8-37.2,5.7-24.5,7.1,12.5C192.8,3716.2,188.3,3708.2,183.6,3646.1z M997.9,3288.8c6,276.4,34.6,361.1-0.1,404.2c-16.1,19.9-11.5,42.1-60.1,92.3c-89.8,92.8-61.6,69.2-74.6,143.8 c-7.3,41.8-5.6,151.4-8.3,155.9c-1.2,1.9,2.5-10.9-19.1,97.1c-13.8,69.3,6,46.8-40.4,146.4c-40.7,87.3-112.2,137.2-112.2,137.5 c0,4.4-144.5,193.3-292.6,271c-16,8.4-35.6,31.9-54.3,37c-9.6,2.6-57.1,31.8-83.8,37.6c-20.5,4.4-43.7,12.2-46.8,10.3 c-5.3-3.3,4.3,3.9-18.9,6.1c-0.1,0.3-10.5,0.7-24.1,2.9c-19.2,3.1-8.8-3.9,13.2-8.9c42.9-9.8,129.3-34.8,159.7-66.4 c7.3-7.6,10.8-1.2,31-17.2c14.8-11.7,44.3-28.1,44.3-32.4c0-4,11.7-1.5,11.7-5.5c0-3.9,20.5-9.2,20.5-12.2c0-2.9,21-13.3,24.3-19.1 c3.3-5.8,17.1-8.5,31-21.5c13.5-12.7,17.7-4.5,16.1-11.3c-1.6-6.6,5.4-6.9,60.3-64c15.4-16-2.8-5.9,34.9-42 c36.6-35.1,33.2-45.6,49.9-57.6c16.4-11.7,12.4-15.7,40.3-42.3c64.9-61.7,54.9-59.8,76.1-100.9c54.3-105,34.4-163.7,52.2-197.5 c34-64.4,2.1-246.1,39.2-286c3.2-3.4,9-12.6,13-20.5c4.8-9.5,20.5-27.1,46.8-52.4c71.5-68.8,49.4-70.6,63.7-93.9 c8.8-14.2,7.8-38.7,12.3-44.4c3.8-4.8-0.3-13.1-1.1-52c-0.9-46.1-8.9-40.2-3.4-45.7c7.7-7.7-8.8-12.9-8.1-131.5 c0.1-18.9-11.4-216.7-5.3-216.7C992.8,3189.2,996.4,3217.8,997.9,3288.8z M1048.9,2783.8c2.4-1.5-1.5,117.3-4.2,128.3 c-2,8-1.6,8.4,5.6,7c20.7-4-5.5,18.9-23.2,16.2c-6-0.9-10.2,0.2-12.8,3.3c-7.7,9.3-12.3,5.6-6.9-5.6c10.3-21.6,9.8,2.8,16.8-43.3 c2.8-18.6,2.7-22.5-0.4-21.3c-2.1,0.8-3.8,0.2-3.8-1.4c0-14.8-20.4,17.2-22.5,35.4c-0.9,8-2.7,14.5-3.9,14.5 c-2.8,0-3.8,13.5-8.5,31.9c-8.9,34.6,17.4-5.9,17.4,8.9c0,3.3-4.8,9.2-11.4,14c-15.2,10.9-27.9,50.7-16.2,50.7 c3.7,0,4.2,1.9,2.6,9.4c-4.7,21.5,2.3,116.6-3.1,118.5c-7.7,2.7-6.3-63.4-9.7-67.7c-3.8-4.9-5.7-19.2-2.7-21 c4.5-2.8-3.8-8.6,4.2-23.3c5.7-10.6,4-16.1-3.2-10.1c-3.9,3.2-4.5,2.3-4.5-6.7c0-22.2-15.2-5.9-19.1,20.4 c-2.6,17.9-3.6,86.8-1.4,93.3c4.6,13.2,6.1,47.2,1.8,41.7c-28.5-36.6,22.2,208.9,1.5,295.1c-6.2,25.8-74.1,302.4-82.5,329.5 c4.4,0-33,85.1-10.2,1.4c34.2-125.5,31.8-155,54.2-229.9c55.3-184.9,15.8-222,17.8-377.8c1-78.7,2.8-96.7-5-153.8 c-4.5-33-1.8-129.7,4.3-149.4c8.6-28.1,17.5-65.7,19.9-84.2c2.7-21,9.9-23.6,9.9-35.8c0-12.8,17.3-49.2,17.5-60.9 c0.1-4.4,1.1-8.1,2.4-8.1c4.6,0,20.6-60,17-63.7c-0.7-0.7,0.7-5.8,3-11.5c2.3-5.6,3.5-12.7,2.6-15.7c-2.5-7.8,7.3-23.1,7.3-35.5 c0-12.3,9.1-8.4,7.7-6.1c-4.9,7.9,2.9,33.1-22.5,136.7c-8.3,33.8-3.2,27.7-11.4,52.7c-50.4,153.9-41.9,199.9-45.3,248.9 c-2.6,36.6-0.2,11.9,12.7,0.3c10.7-9.7,42.9-116.6,69.6-157.1c27.1-41,16.3-49.5,22.8-64.9c15.2-36.4-19.9-134.1-14.5-139.5 c5.7-5.7,22,47.5,22,71.6c0,11.5,6.6,12.9,8.3,1.7c0.9-6.4,6.4-9.1,6.4-3.3c0,1.7,1.3,2.3,2.9,1.3c3.8-2.3,4.4,6.1-1.1,8.2 c-6.3,2.4-2.8,22.9-6.3,28.5C1048.2,2759.9,1046.5,2785.3,1048.9,2783.8z"/> <path d="M1224.6,2391.5c6-15.3-0.4-29.6-13.5-30.6c-14.3-1-15.8,2.4-7.3,17.9c6.5,11.9,4.8,12.3,6-0.1c1-10.3,6.4-13.3,6.4-3.7 c0,3.2,1.3,5.9,2.9,5.9C1224.3,2380.9,1220.6,2401.9,1224.6,2391.5z"/> <path d="M452.2,2222.2c1.6,4.4,1.4,39.7-8.1,81.1c0.1,0.3-1,5.2,4.3-4.9c11.7-22.5,6-57.9,17.7-68.9c13.5-12.9,9-36-7.1-36 C451.5,2193.5,447.7,2209.8,452.2,2222.2z"/> <path d="M-512.2,540.1c-19.8,4.8-43.1,0.5-34.7,16c2.7,5,5.1,6,11.5,4.6c16.6-3.7,19.7,11.7,8.9,44.2c-9.9,29.6-1.4,13.3,0.4,111 c0.2,11.9,2,34.6,1.7,34.6c2.2,39.1,2.8,36.2,4.9-3.8C-510.3,574.3-474,531-512.2,540.1z"/> <path d="M349.6,1709c-7.6-4.2-25.3,3.1-28.7,11.9c-0.8,2.2-2.6,3.9-4,3.9c-3.2,0-32.1,27.7-32.1,30.7c0,1.3,2.7,6.7,6.1,12.2 c9.4,15.2,14.9,13,47-18.7C382.6,1704.9,364.7,1717.4,349.6,1709z"/> <path d="M-498.1,1883.9c16.8-17.8,15.9-25.3-1.6-12.8c-4.7,3.3-10.7,6.1-13.3,6.1c-15.1,0-25.4,8.3-23.4,18.9 c1.6,8.4,1,10.3-2.8,10.3c-5.8,0-0.5-1.2-19.2,26.4C-511.9,1932.8-533.9,1921.7-498.1,1883.9z"/> <path d="M-434.1,2123c2.5,11.5,3.2,10.8,5.3-5.4c1.5-11.5,1.2-12.4-2.8-8.4C-436.9,2114.5-434.1,2123.3-434.1,2123z"/> <path d="M-669.8,1751.2c-19.5,10.4,21,28.5,27.8,17.4C-636.8,1760.3-659.8,1745.8-669.8,1751.2z"/> <path d="M-785.7,2477.4c49.7-50.3,60.1-48,60.1-53c0-3.6,7.6-1,10.3-5.5c3.8-6.1-43.1-1.2-70.4,7.3c-37.4,11.8-36.6,10.7-36.6,50.3 C-822.2,2516.8-824.6,2516.8-785.7,2477.4z"/> <path d="M512.4,1856.6c-7.2,0-10.4-6.1-7.8-14.9c2.1-7.3,1.3-9.2-5.9-14.3c-12.6-9-17.6-6.4-17.6,8.9c0,3.6-2.8,6.3-8.1,7.6 c-12.5,3.1-39.1,34.8-45.7,37.1c-4.9,1.7,12.9,34.3,15.4,34.3c2.8,0,25.9-19.4,35.8-30C489.8,1873.1,530.3,1856.6,512.4,1856.6z"/> <path d="M-667.9,2475.8c-55.6,45.5-50.1,182-100.1,304.1c0.3,0.1-2.1,5.1,0.7,5.1c6.1,0,34.8-73.2,39.2-73.2c3.2,0-2-7.5,2.3-10.1 c10.9-6.7,64.2-209,68.5-221.1C-651.2,2463.6-652.3,2463.1-667.9,2475.8z"/> <path d="M-418.4,2170.7c1.9-3.6,1.5-6.9-1.4-10.8c-3.8-5.2-4.1-4.8-4.1,5.2C-423.1,2164.7-425.6,2184.2-418.4,2170.7z"/> <path d="M-1049,3054c2.3-6.6,4.2-15.2,4.2-19.1c0-27.6,47.9-84.7,84.2-100.5c115-49.9,123-198.8,147.2-320.8 c3.5-17.6,16.3-45.4,20.9-45.4c1.4,0,2.5-3.7,2.5-8.2c0-9.8,20.5-44,20.5-44.1c0-3.3,41.1-47.8,12-3.1c-11.4,17.6-23,45.5-20,48.5 c0.8,0.8,9.2-6.3,18.6-15.8c24.9-25,23.9-17.9,34.9-38.3c11.8-21.8,29.6-41.4,37.7-41.4c9.7,0,54.9-48,66.1-70.2 c11.2-22.2,11.2-17.7,2.1-17.7c-9.1,0-55.6,22.7-53.5,26.1c0.9,1.5-2.6,3.6-7.9,4.7c-34.9,7.2-98.6,72-139.4,110.9 c-8.1,79-40.7,156.3-56.2,173.1c-7.7,8.4-8.1,21.2-12,23.6c-4.5,2.8-2.8-12.5,1.8-16.3c4.3-3.5,69.5-161.1,54.7-161.1 c-8.2,0-83.5,162-125.3,241.6c-18.8,35.9-60.4,92.2-39,55.8c8.1-13.8,4-19-7-8.8c-4.4,4.1-8,8.4-8,9.7c0,6.7-29.5,25.1-44.4,58.5 c-11.1,24.8-14.5,28.4-12.4,33.7c0.9,2.3,0.2,5.1-1.6,6.2c-31.1,19.2-8.6,225.2-8.6,224.9C-1074.7,3213.7-1055.5,3072.4-1049,3054z "/> <path d="M461.9,3395.7c-10.8-27.8-37.1-81.1-18.4-25.6c12.7,37.8,12.5,53.7,25.4,93.2c27.6,84.7,7,141.8,10.5,141.8 C473.7,3643.3,515.2,3533.7,461.9,3395.7z"/> <path d="M566,1266.1c-17.1,3.6,8.1,31.9,17.6,44.2c0.8,0,19.7,29.4,6.3-15.4C580,1262.1,585.9,1262,566,1266.1z"/> <path d="M20.3,3830.8c-1,1.1-6.4,33-1.9,26.1C20.9,3853,22.8,3827.9,20.3,3830.8z"/> <path d="M-1130.4,2509.8c36.9-99.5,41.9-81.9,29.4-96.3c-8.3-9.6-38.6-35.6-11-21.4c10.3,5.3,15.9,9.5,35.3,26.5 c12.6,11,20.3,11.6,12.2,0.9c-6.7-8.8-37.6-43.9-58.8-59c-6.4,11.1-13.5,22.3-21.3,43.9c-17.4,48.6-23.6,34.9-35.3,74.4 c-8.3,28.2-33.4,85.2-33.4,121.1C-1218.7,2632.1-1146.8,2554-1130.4,2509.8z"/> <path d="M6.8,3904.3c-10.5,42.1-18,59.2-11.8,109.6c-0.3,0,6.9,65.2,6-5.5C0.4,3960.3,19,3855.4,6.8,3904.3z"/> <path d="M74,2129.2c0-12.2,22.5-54.2-3-27.9c-10.4,10.7-16.7,36.2-10.6,42.3C60.5,2148,74,2140,74,2129.2z"/> </g> </svg>